<?xml version="1.0" encoding="UTF-8"?><svg xmlns="http://www.w3.org/2000/svg" xmlns:xlink="http://www.w3.org/1999/xlink" contentScriptType="text/ecmascript" width="375" zoomAndPan="magnify" contentStyleType="text/css" viewBox="0 0 375 374.999991" height="374.999991" preserveAspectRatio="xMidYMid meet" version="1.0"><defs><clipPath id="clip-0"><path d="M 42.324219 154 L 96 154 L 96 218 L 42.324219 218 Z M 42.324219 154 " clip-rule="nonzero"/></clipPath><clipPath id="clip-1"><path d="M 42.324219 154 L 95 154 L 95 186 L 42.324219 186 Z M 42.324219 154 " clip-rule="nonzero"/></clipPath><clipPath id="clip-2"><path d="M 42.324219 160 L 88 160 L 88 218 L 42.324219 218 Z M 42.324219 160 " clip-rule="nonzero"/></clipPath></defs><path fill="rgb(40.779114%, 47.839355%, 72.938538%)" d="M 123.960938 271.902344 C 110.929688 279.402344 89.707031 279.402344 76.578125 271.902344 C 63.546875 264.398438 63.546875 252.160156 76.578125 244.558594 C 89.609375 237.054688 110.832031 237.054688 123.960938 244.558594 C 137.089844 252.058594 137.089844 264.300781 123.960938 271.902344 Z M 123.960938 271.902344 " fill-opacity="0.2078" fill-rule="nonzero"/><path fill="rgb(95.689392%, 50.588989%, 35.688782%)" d="M 171.34375 52.0625 L 162.753906 54.925781 C 161.175781 55.417969 159.496094 54.628906 159.003906 53.050781 L 157.226562 47.621094 C 156.734375 46.042969 157.523438 44.363281 159.101562 43.871094 L 173.121094 39.230469 C 174.699219 38.734375 176.378906 39.527344 176.871094 41.105469 C 178.351562 45.644531 175.882812 50.582031 171.34375 52.0625 Z M 171.34375 52.0625 " fill-opacity="1" fill-rule="nonzero"/><path fill="rgb(95.689392%, 50.588989%, 35.688782%)" d="M 160.484375 39.03125 C 157.523438 38.933594 156.734375 40.117188 155.746094 42.980469 L 144.097656 80.296875 L 116.261719 43.574219 C 113.398438 41.105469 108.957031 41.5 106.488281 44.363281 C 104.019531 47.226562 104.414062 51.667969 107.277344 54.136719 L 136.496094 90.957031 C 139.457031 93.425781 145.382812 96.78125 149.035156 95.597656 C 149.230469 95.496094 149.332031 95.496094 149.527344 95.398438 C 153.082031 94.015625 155.648438 90.859375 156.242188 87.105469 L 167 52.359375 Z M 160.484375 39.03125 " fill-opacity="1" fill-rule="nonzero"/><path fill="rgb(26.269531%, 43.919373%, 71.369934%)" d="M 165.222656 57.886719 L 163.941406 62.824219 L 157.917969 88.09375 C 157.226562 92.339844 154.265625 95.890625 150.21875 97.472656 C 150.019531 97.570312 149.824219 97.667969 149.625 97.667969 C 145.480469 99.050781 138.964844 95.597656 135.609375 92.734375 L 111.226562 59.863281 C 107.769531 56.898438 107.375 51.765625 110.238281 48.3125 C 113.199219 44.855469 118.332031 44.460938 121.789062 47.324219 L 143.507812 78.816406 L 149.527344 58.28125 L 151.601562 52.753906 C 158.511719 51.273438 161.769531 52.65625 165.222656 57.886719 Z M 165.222656 57.886719 " fill-opacity="1" fill-rule="nonzero"/><path fill="rgb(15.289307%, 22.749329%, 57.249451%)" d="M 102.441406 234.191406 C 100.859375 234.191406 99.480469 235.476562 98.789062 236.859375 C 98.195312 238.339844 98.195312 240.015625 98.195312 241.597656 C 98.195312 242.976562 98.292969 244.558594 99.28125 245.542969 C 99.972656 246.136719 100.859375 246.433594 101.75 246.628906 C 103.429688 247.125 105.007812 247.519531 106.785156 247.714844 C 108.660156 247.914062 110.632812 247.617188 112.507812 247.914062 C 113.695312 248.109375 114.878906 248.507812 116.0625 248.800781 C 119.417969 249.59375 123.070312 249.492188 126.328125 248.507812 C 127.121094 248.308594 127.808594 248.011719 128.304688 247.421875 C 129.09375 246.433594 128.796875 244.851562 128.007812 243.867188 C 127.21875 242.878906 126.035156 242.285156 124.847656 241.792969 C 121.296875 240.214844 117.839844 238.535156 114.285156 236.957031 C 110.832031 235.375 107.277344 233.796875 103.527344 233.699219 C 102.34375 233.699219 100.761719 234.191406 100.859375 235.375 Z M 102.441406 234.191406 " fill-opacity="1" fill-rule="nonzero"/><path fill="rgb(88.238525%, 90.589905%, 94.119263%)" d="M 105.203125 240.113281 L 104.910156 240.113281 C 102.539062 239.917969 100.859375 237.84375 101.058594 235.574219 L 101.652344 228.464844 C 101.847656 226.097656 103.921875 224.417969 106.191406 224.617188 L 106.488281 224.617188 C 108.855469 224.8125 110.535156 226.886719 110.335938 229.15625 L 109.746094 236.265625 C 109.546875 238.632812 107.476562 240.3125 105.203125 240.113281 Z M 105.203125 240.113281 " fill-opacity="1" fill-rule="nonzero"/><path fill="rgb(15.289307%, 22.749329%, 57.249451%)" d="M 88.421875 254.132812 C 89.015625 255.515625 89.707031 256.796875 90.296875 258.179688 C 90.890625 259.5625 91.484375 260.945312 91.976562 262.425781 C 92.667969 264.597656 93.851562 268.839844 92.273438 270.816406 C 89.902344 273.777344 86.152344 271.210938 84.277344 269.136719 C 81.511719 265.976562 78.847656 262.621094 76.480469 258.96875 C 75.492188 257.390625 74.40625 255.710938 74.109375 253.835938 C 73.121094 247.816406 75.984375 239.324219 82.105469 241.300781 C 84.277344 241.992188 85.265625 243.867188 85.757812 246.335938 C 86.25 249.195312 87.238281 251.664062 88.421875 254.132812 Z M 88.421875 254.132812 " fill-opacity="1" fill-rule="nonzero"/><path fill="rgb(88.238525%, 90.589905%, 94.119263%)" d="M 83.683594 250.777344 L 78.75 250.777344 C 77.664062 250.777344 76.773438 249.886719 76.773438 248.800781 L 76.773438 237.054688 C 76.773438 235.96875 77.664062 235.082031 78.75 235.082031 L 83.683594 235.082031 C 84.769531 235.082031 85.660156 235.96875 85.660156 237.054688 L 85.660156 248.800781 C 85.660156 249.988281 84.769531 250.777344 83.683594 250.777344 Z M 83.683594 250.777344 " fill-opacity="1" fill-rule="nonzero"/><path fill="rgb(15.289307%, 22.749329%, 57.249451%)" d="M 102.738281 102.605469 L 80.527344 110.304688 L 71.640625 120.472656 L 74.308594 184.242188 L 74.308594 239.917969 C 74.308594 242.878906 76.675781 245.25 79.636719 245.25 L 83.289062 245.25 C 86.054688 245.25 88.324219 243.175781 88.621094 240.410156 L 94.246094 173.878906 L 96.121094 148.703125 L 100.761719 146.828125 L 102.835938 177.035156 L 100.367188 228.960938 C 100.171875 232.019531 102.835938 234.585938 105.894531 234.390625 L 108.460938 234.191406 C 110.832031 233.996094 112.804688 232.21875 113.199219 229.75 L 121.195312 174.863281 C 121.394531 173.1875 121.589844 171.507812 121.589844 169.929688 L 121.589844 112.675781 Z M 102.738281 102.605469 " fill-opacity="1" fill-rule="nonzero"/><path fill="rgb(86.268616%, 90.979004%, 96.469116%)" d="M 122.875 59.070312 L 122.875 120.867188 C 122.875 122.25 122.183594 123.632812 120.902344 124.324219 L 107.476562 132.613281 C 101.058594 136.5625 93.65625 138.242188 86.25 137.453125 C 83.683594 137.15625 81.117188 136.660156 78.648438 135.773438 L 71.148438 130.738281 L 75.195312 63.019531 C 75.292969 60.15625 76.480469 57.492188 78.355469 55.417969 C 79.046875 54.628906 79.933594 53.9375 80.921875 53.347656 L 85.757812 50.285156 L 87.140625 49.398438 C 90.792969 46.832031 98 44.164062 104.414062 43.375 C 105.699219 43.179688 106.882812 43.078125 108.066406 43.078125 C 110.632812 43.078125 112.90625 43.476562 114.582031 44.460938 C 119.714844 47.523438 122.875 53.050781 122.875 59.070312 Z M 122.875 59.070312 " fill-opacity="1" fill-rule="nonzero"/><path fill="rgb(64.309692%, 80.778503%, 93.328857%)" d="M 75.195312 63.019531 C 75.195312 62.328125 75.292969 61.636719 75.492188 60.945312 C 78.253906 58.578125 80.921875 56.40625 83.289062 59.171875 C 84.96875 61.144531 86.152344 65.585938 87.140625 67.957031 C 87.140625 68.054688 87.042969 68.152344 87.042969 68.253906 C 85.855469 71.609375 84.277344 77.136719 85.164062 80.492188 C 85.855469 82.863281 87.730469 84.835938 88.226562 87.304688 C 89.210938 92.535156 83.785156 105.46875 84.277344 110.796875 C 84.574219 113.859375 86.746094 116.226562 88.128906 118.894531 C 91.089844 124.71875 89.902344 131.824219 86.25 137.453125 C 83.683594 137.15625 81.117188 136.660156 78.648438 135.773438 L 71.148438 130.738281 Z M 75.195312 63.019531 " fill-opacity="0.5882" fill-rule="nonzero"/><path fill="rgb(26.269531%, 43.919373%, 71.369934%)" d="M 73.121094 62.921875 C 73.121094 62.722656 73.121094 62.527344 73.222656 62.230469 L 73.121094 62.230469 C 73.121094 62.230469 73.222656 58.480469 73.222656 58.480469 C 73.320312 55.417969 74.601562 52.457031 76.675781 50.1875 C 79.539062 47.226562 84.871094 45.941406 88.621094 44.363281 C 101.058594 38.933594 126.132812 42.488281 126.132812 58.972656 L 126.132812 134.09375 C 126.132812 135.871094 125.242188 137.550781 123.664062 138.4375 L 119.320312 141.105469 C 118.433594 141.597656 117.347656 141.695312 116.457031 141.203125 C 115.273438 140.511719 114.484375 139.226562 114.582031 137.847656 C 114.679688 126.890625 114.878906 115.929688 114.976562 104.972656 C 115.175781 87.996094 117.742188 71.707031 115.175781 54.828125 C 114.878906 53.148438 114.582031 51.371094 113.792969 49.792969 C 111.027344 44.460938 102.441406 44.265625 97.308594 45.449219 C 95.433594 45.84375 94.050781 46.730469 93.0625 47.816406 L 97.011719 46.632812 C 95.234375 47.226562 93.554688 48.113281 92.175781 49.199219 C 90.398438 52.753906 91.1875 57.984375 92.074219 62.132812 C 97.308594 88.09375 97.605469 115.042969 92.867188 141.105469 C 92.667969 141.992188 92.371094 143.078125 91.878906 143.964844 C 91.78125 145.050781 91.382812 146.238281 90.890625 147.222656 C 89.804688 149.296875 88.523438 150.679688 86.746094 151.273438 C 85.460938 151.273438 84.179688 151.273438 82.992188 151.171875 C 81.019531 150.875 79.046875 150.382812 77.5625 149.890625 L 71.246094 145.84375 C 70.0625 145.050781 69.46875 143.769531 69.46875 142.386719 C 69.765625 129.652344 73.121094 62.921875 73.121094 62.921875 Z M 73.121094 62.921875 " fill-opacity="1" fill-rule="nonzero"/><path fill="rgb(28.239441%, 39.219666%, 68.238831%)" d="M 103.429688 58.675781 L 104.910156 57.691406 L 112.507812 91.648438 C 112.707031 92.734375 112.609375 93.820312 112.214844 94.707031 L 107.476562 105.664062 C 107.082031 106.554688 105.996094 106.652344 105.402344 105.863281 L 99.28125 97.964844 Z M 103.429688 58.675781 " fill-opacity="1" fill-rule="nonzero"/><path fill="rgb(28.239441%, 39.219666%, 68.238831%)" d="M 106.488281 52.953125 L 105.996094 57.886719 C 105.5 59.367188 103.625 59.367188 102.441406 57.984375 L 98.589844 53.742188 Z M 106.488281 52.953125 " fill-opacity="1" fill-rule="nonzero"/><path fill="rgb(93.728638%, 97.24884%, 99.21875%)" d="M 90.398438 53.148438 C 89.902344 51.867188 89.507812 50.679688 89.3125 49.398438 C 86.941406 36.664062 110.335938 35.972656 110.335938 50.382812 L 110.335938 52.65625 C 110.335938 53.542969 109.648438 54.234375 108.957031 54.039062 L 102.738281 52.65625 L 97.703125 58.675781 C 97.011719 59.863281 95.433594 59.960938 94.640625 58.875 C 93.359375 57.195312 91.878906 55.121094 90.398438 53.148438 Z M 90.398438 53.148438 " fill-opacity="1" fill-rule="nonzero"/><path fill="rgb(26.269531%, 43.919373%, 71.369934%)" d="M 97.605469 28.273438 C 97.605469 28.273438 97.503906 28.273438 97.605469 28.273438 C 97.503906 28.273438 97.503906 28.074219 97.503906 27.976562 C 97.503906 28.074219 97.503906 28.171875 97.605469 28.273438 Z M 97.605469 28.273438 " fill-opacity="1" fill-rule="nonzero"/><g clip-path="url(#clip-0)"><path fill="rgb(64.309692%, 80.778503%, 93.328857%)" d="M 45.085938 157.492188 C 43.605469 158.972656 42.816406 160.847656 42.816406 162.921875 L 42.816406 180.195312 C 42.816406 181.183594 42.324219 182.070312 43.210938 182.664062 L 44.890625 183.648438 L 44.890625 192.730469 C 44.890625 193.621094 45.382812 194.507812 46.171875 195.003906 C 46.171875 195.003906 84.871094 217.3125 84.871094 217.410156 C 88.128906 219.285156 95.035156 216.027344 95.035156 211.882812 L 95.035156 181.675781 C 95.035156 181.183594 94.9375 180.789062 94.742188 180.390625 C 94.542969 179.800781 94.050781 179.304688 93.554688 179.011719 L 51.207031 154.527344 C 50.023438 153.839844 48.542969 154.035156 47.554688 155.023438 Z M 45.085938 157.492188 " fill-opacity="1" fill-rule="nonzero"/></g><g clip-path="url(#clip-1)"><path fill="rgb(64.309692%, 80.778503%, 93.328857%)" d="M 42.71875 162.523438 L 42.71875 166.867188 L 84.277344 185.328125 C 86.054688 186.117188 88.128906 185.820312 89.609375 184.539062 L 94.542969 180.292969 C 94.347656 179.703125 93.851562 179.207031 93.359375 178.910156 L 51.207031 154.527344 C 50.023438 153.839844 48.542969 154.035156 47.554688 155.023438 L 44.691406 157.785156 C 43.507812 159.070312 42.71875 160.75 42.71875 162.523438 Z M 42.71875 162.523438 " fill-opacity="1" fill-rule="nonzero"/></g><g clip-path="url(#clip-2)"><path fill="rgb(26.269531%, 43.919373%, 71.369934%)" d="M 44.101562 183.253906 C 43.210938 182.761719 42.71875 181.875 42.71875 180.886719 L 42.71875 161.539062 C 42.71875 160.75 43.605469 160.253906 44.199219 160.648438 L 83.289062 183.847656 C 85.855469 185.328125 87.4375 187.992188 87.4375 190.953125 L 87.4375 213.957031 C 87.4375 216.421875 84.769531 218.003906 82.597656 216.71875 L 46.765625 195.296875 C 45.679688 194.707031 44.792969 193.125 44.792969 191.941406 L 44.792969 184.339844 C 44.792969 183.847656 44.59375 183.453125 44.101562 183.253906 Z M 44.101562 183.253906 " fill-opacity="1" fill-rule="nonzero"/></g><path fill="rgb(64.309692%, 80.778503%, 93.328857%)" d="M 60.683594 193.917969 L 67.691406 197.964844 C 68.285156 198.261719 68.777344 198.0625 68.777344 197.371094 L 68.777344 192.632812 C 68.777344 191.941406 68.285156 191.152344 67.691406 190.855469 L 60.683594 186.808594 C 60.09375 186.511719 59.597656 186.710938 59.597656 187.402344 L 59.597656 192.140625 C 59.695312 192.730469 60.09375 193.523438 60.683594 193.917969 Z M 60.683594 193.917969 " fill-opacity="1" fill-rule="nonzero"/><path fill="rgb(26.269531%, 43.919373%, 71.369934%)" d="M 59.796875 160.648438 C 59.796875 158.082031 59.894531 156.601562 61.671875 156.304688 C 62.757812 155.121094 65.621094 155.023438 67.691406 156.207031 L 72.925781 159.265625 C 76.28125 161.242188 79.046875 165.980469 79.046875 169.929688 L 79.046875 175.753906 L 77.269531 176.640625 L 74.898438 175.257812 L 74.898438 169.433594 C 74.898438 167.066406 73.222656 164.105469 71.148438 162.921875 L 65.917969 159.859375 C 65.324219 159.5625 64.832031 159.367188 64.335938 159.367188 C 64.039062 159.859375 63.84375 160.453125 63.84375 161.144531 L 63.84375 166.96875 L 62.066406 167.855469 L 59.695312 166.472656 Z M 59.796875 160.648438 " fill-opacity="1" fill-rule="nonzero"/><path fill="rgb(51.368713%, 37.649536%, 38.819885%)" d="M 61.96875 154.726562 C 62.066406 153.738281 62.066406 152.457031 62.164062 151.074219 C 62.066406 152.554688 61.96875 153.738281 61.96875 154.726562 Z M 61.96875 154.726562 " fill-opacity="1" fill-rule="nonzero"/><path fill="rgb(26.269531%, 43.919373%, 71.369934%)" d="M 76.578125 149 C 76.578125 149 76.675781 149 76.675781 149 C 76.675781 149.496094 76.578125 149.890625 76.578125 150.382812 C 76.675781 149.296875 76.675781 148.210938 76.773438 147.027344 C 77.664062 131.628906 76.675781 103.492188 76.972656 99.644531 L 84.472656 59.566406 C 85.363281 55.714844 82.992188 51.765625 79.144531 50.878906 C 75.292969 49.988281 71.34375 52.359375 70.457031 56.207031 L 62.855469 96.878906 C 62.757812 97.273438 62.660156 97.667969 62.660156 98.0625 C 62.558594 99.347656 62.066406 107.34375 61.574219 116.523438 C 61.179688 123.238281 62.855469 139.820312 62.460938 145.742188 C 62.363281 147.027344 62.363281 148.210938 62.261719 149.296875 C 62.660156 149.890625 63.25 150.480469 64.039062 150.976562 C 67 152.652344 71.742188 152.652344 74.703125 150.976562 C 75.589844 150.382812 76.28125 149.691406 76.578125 149 Z M 76.578125 149 " fill-opacity="1" fill-rule="nonzero"/><path fill="rgb(95.689392%, 50.588989%, 35.688782%)" d="M 77.167969 149.394531 C 76.875 150.085938 75.589844 150.382812 74.601562 150.875 C 71.640625 152.554688 66.902344 152.554688 63.941406 150.875 C 63.152344 150.382812 62.558594 149.789062 62.164062 149.199219 C 62.164062 149.789062 62.066406 150.382812 62.066406 150.976562 C 62.066406 150.976562 62.066406 151.074219 62.066406 151.074219 C 61.96875 152.457031 61.867188 153.738281 61.867188 154.726562 C 61.867188 154.925781 61.867188 155.121094 61.867188 155.320312 C 61.867188 155.613281 61.867188 155.8125 61.867188 156.011719 C 61.867188 156.109375 61.867188 156.207031 61.867188 156.304688 C 61.867188 156.40625 61.867188 156.40625 61.867188 156.503906 C 61.867188 156.503906 61.867188 156.601562 61.867188 156.601562 C 61.867188 156.699219 61.867188 156.699219 61.867188 156.800781 C 61.867188 156.898438 61.867188 156.898438 61.867188 156.996094 C 61.867188 157.097656 61.867188 157.097656 61.867188 157.097656 C 61.867188 157.195312 61.867188 157.195312 61.867188 157.292969 C 61.671875 161.242188 64.632812 164.695312 68.679688 164.894531 C 68.777344 164.894531 68.976562 164.894531 69.074219 164.894531 C 72.824219 164.894531 76.082031 161.933594 76.28125 158.082031 C 76.378906 156.699219 76.480469 155.21875 76.578125 153.640625 C 76.675781 152.160156 76.773438 150.480469 76.875 148.804688 C 76.675781 149 77.167969 149.394531 77.167969 149.394531 Z M 77.167969 149.394531 " fill-opacity="1" fill-rule="nonzero"/><path fill="rgb(78.039551%, 91.758728%, 98.429871%)" d="M 77.566406 141.003906 L 77.566406 141.398438 C 77.464844 143.570312 77.464844 145.347656 77.367188 147.027344 L 77.167969 149.394531 L 76.578125 150.382812 L 76.183594 150.382812 C 75.789062 150.777344 75.394531 151.074219 74.898438 151.371094 C 73.320312 152.257812 71.34375 152.652344 69.371094 152.652344 C 67.398438 152.652344 65.324219 152.257812 63.84375 151.371094 C 62.953125 150.875 62.261719 150.285156 61.867188 149.496094 L 61.769531 149.394531 L 61.96875 145.644531 C 61.96875 145.152344 61.96875 143.671875 61.96875 142.089844 C 61.96875 141.5 62.558594 141.203125 63.054688 141.398438 C 63.644531 141.695312 64.140625 141.992188 64.335938 142.089844 C 67.101562 143.671875 71.640625 143.671875 74.40625 142.089844 C 74.996094 141.695312 76.578125 141.300781 76.972656 140.90625 C 77.070312 140.90625 77.070312 140.90625 77.167969 141.003906 Z M 77.566406 141.003906 " fill-opacity="1" fill-rule="nonzero"/><path fill="rgb(95.689392%, 50.588989%, 35.688782%)" d="M 92.765625 44.460938 L 92.765625 29.65625 C 92.765625 27.777344 93.457031 26.199219 94.640625 24.917969 C 95.332031 24.226562 96.121094 23.632812 97.109375 23.238281 C 97.898438 22.941406 98.589844 22.84375 99.480469 22.746094 C 99.875 22.746094 100.269531 22.746094 100.566406 22.84375 C 102.046875 23.039062 103.429688 23.730469 104.515625 24.816406 C 105.796875 26.101562 106.488281 27.777344 106.488281 29.65625 L 106.488281 45.152344 L 106.390625 45.152344 C 105.894531 47.523438 103.132812 49.398438 99.578125 49.398438 C 96.023438 49.398438 93.261719 47.621094 92.765625 45.152344 L 92.667969 45.152344 L 92.667969 44.460938 Z M 92.765625 44.460938 " fill-opacity="1" fill-rule="nonzero"/><path fill="rgb(95.689392%, 50.588989%, 35.688782%)" d="M 105.699219 46.929688 C 99.972656 46.632812 95.433594 42.980469 95.433594 38.539062 L 95.433594 24.421875 C 96.714844 24.027344 98.097656 23.832031 99.480469 23.832031 L 99.875 23.832031 C 100.171875 23.832031 100.367188 23.832031 100.664062 23.929688 C 100.761719 23.929688 100.859375 23.929688 100.859375 23.929688 C 101.550781 24.027344 102.144531 24.226562 102.738281 24.621094 C 103.03125 24.71875 103.230469 24.917969 103.527344 25.113281 C 103.625 25.210938 103.722656 25.3125 103.824219 25.3125 C 104.117188 25.507812 104.316406 25.804688 104.613281 26.101562 C 105.796875 27.382812 106.488281 29.257812 106.488281 31.234375 L 106.488281 43.769531 Z M 105.699219 46.929688 " fill-opacity="1" fill-rule="nonzero"/><path fill="rgb(15.289307%, 22.749329%, 57.249451%)" d="M 123.269531 15.734375 C 122.085938 16.722656 114.878906 19.980469 114.878906 19.980469 L 113.300781 11.292969 C 113.300781 11.292969 116.160156 9.023438 117.148438 8.726562 C 118.234375 8.429688 121.589844 11.097656 121.589844 11.097656 Z M 123.269531 15.734375 " fill-opacity="1" fill-rule="nonzero"/><path fill="rgb(95.689392%, 50.588989%, 35.688782%)" d="M 95.433594 36.960938 C 93.949219 34.789062 93.261719 31.332031 92.964844 28.964844 C 92.570312 26.59375 89.3125 27.582031 89.3125 25.113281 C 89.3125 23.335938 90.890625 21.558594 91.679688 19.980469 C 92.570312 18.203125 93.65625 16.722656 95.332031 15.539062 C 97.308594 14.15625 99.675781 13.367188 102.046875 12.675781 C 104.710938 11.984375 107.375 11.390625 110.140625 11.097656 L 110.929688 8.53125 L 119.417969 8.53125 L 119.417969 32.910156 C 119.417969 33.109375 119.320312 33.503906 119.222656 33.898438 C 117.742188 39.921875 111.128906 43.078125 105.402344 40.808594 Z M 95.433594 36.960938 " fill-opacity="1" fill-rule="nonzero"/><path fill="rgb(80.389404%, 83.529663%, 90.979004%)" d="M 122.085938 7.246094 C 119.617188 5.566406 116.359375 4.382812 113.695312 3.101562 C 110.632812 1.621094 107.277344 0.535156 103.921875 0.335938 C 99.378906 0.0390625 94.542969 1.621094 91.484375 4.976562 C 87.042969 9.8125 86.25 16.921875 86.84375 23.140625 C 87.042969 25.605469 87.4375 28.273438 88.71875 30.34375 C 89.410156 31.429688 93.0625 34.886719 94.640625 33.503906 C 96.023438 32.417969 94.347656 30.246094 94.9375 28.570312 C 95.035156 28.371094 95.136719 28.074219 95.332031 27.976562 C 95.628906 27.679688 96.121094 27.777344 96.519531 27.878906 C 96.8125 27.976562 97.207031 27.976562 97.503906 27.878906 C 98.195312 27.582031 98.292969 26.691406 98.292969 25.902344 C 98.097656 23.433594 97.800781 20.671875 100.566406 19.980469 C 102.539062 19.488281 104.710938 20.179688 106.488281 19.386719 C 110.238281 17.710938 113.59375 14.945312 117.644531 14.058594 C 118.234375 13.957031 119.125 13.5625 119.320312 14.15625 C 119.816406 15.933594 119.519531 16.523438 119.914062 17.710938 C 121.589844 17.511719 123.46875 16.230469 124.058594 14.75 C 124.847656 13.070312 124.847656 10.996094 123.960938 9.417969 C 123.46875 8.429688 122.777344 7.839844 122.085938 7.246094 Z M 122.085938 7.246094 " fill-opacity="1" fill-rule="nonzero"/><path fill="rgb(80.389404%, 83.529663%, 90.979004%)" d="M 102.835938 45.546875 C 101.257812 45.054688 99.773438 44.066406 98.492188 42.785156 C 96.320312 40.414062 94.839844 37.453125 94.050781 34.292969 C 93.851562 33.40625 93.753906 32.617188 93.753906 31.726562 C 93.753906 31.332031 93.851562 30.839844 94.148438 30.542969 C 94.542969 30.246094 95.234375 30.445312 95.628906 30.839844 C 95.925781 31.234375 96.121094 31.828125 96.222656 32.417969 C 96.8125 34.394531 97.898438 36.070312 99.378906 37.550781 C 102.242188 38.539062 105.796875 37.15625 108.066406 35.480469 C 109.746094 34.097656 111.421875 32.515625 113.496094 31.925781 C 120.210938 30.050781 122.28125 34.886719 120.308594 39.625 C 120.011719 40.414062 119.417969 41.007812 118.925781 41.597656 C 114.78125 45.746094 108.363281 47.324219 102.835938 45.546875 Z M 102.835938 45.546875 " fill-opacity="1" fill-rule="nonzero"/><path fill="rgb(15.289307%, 22.749329%, 57.249451%)" d="M 93.464844 22.996094 L 93.878906 22.324219 L 103.953125 28.558594 L 103.535156 29.230469 Z M 93.464844 22.996094 " fill-opacity="1" fill-rule="nonzero"/><path fill="rgb(95.689392%, 50.588989%, 35.688782%)" d="M 97.308594 27.976562 C 97.011719 28.074219 96.8125 28.074219 96.519531 28.074219 C 96.519531 27.976562 96.519531 27.976562 96.417969 27.878906 Z M 97.308594 27.976562 " fill-opacity="1" fill-rule="nonzero"/><path fill="rgb(95.689392%, 50.588989%, 35.688782%)" d="M 91.679688 23.730469 C 92.964844 23.433594 94.148438 24.421875 94.742188 25.605469 C 95.035156 26.199219 95.234375 26.890625 95.628906 27.382812 C 95.828125 27.679688 96.222656 27.878906 96.519531 27.976562 C 96.914062 28.863281 96.121094 30.050781 95.136719 30.246094 C 94.050781 30.542969 92.964844 29.949219 92.074219 29.359375 C 91.089844 28.667969 90.296875 27.679688 90.101562 26.496094 C 89.902344 25.410156 90.496094 24.027344 91.679688 23.730469 Z M 91.679688 23.730469 " fill-opacity="1" fill-rule="nonzero"/><path fill="rgb(96.859741%, 69.799805%, 9.408569%)" d="M 113.992188 24.027344 C 113.792969 23.238281 113.199219 22.941406 112.609375 23.335938 C 112.015625 23.632812 111.523438 24.519531 111.226562 25.605469 L 110.832031 25.507812 C 111.128906 24.125 111.820312 23.039062 112.507812 22.546875 C 113.300781 22.152344 113.890625 22.449219 114.1875 23.535156 Z M 113.992188 24.027344 " fill-opacity="1" fill-rule="nonzero"/><path fill="rgb(15.289307%, 22.749329%, 57.249451%)" d="M 113.992188 24.027344 C 113.792969 23.238281 113.199219 22.941406 112.609375 23.335938 C 112.015625 23.632812 111.523438 24.519531 111.226562 25.605469 L 110.832031 25.507812 C 111.128906 24.125 111.820312 23.039062 112.507812 22.546875 C 113.300781 22.152344 113.890625 22.449219 114.1875 23.535156 Z M 113.992188 24.027344 " fill-opacity="1" fill-rule="nonzero"/><path fill="rgb(15.289307%, 22.749329%, 57.249451%)" d="M 104.515625 33.601562 C 103.625 33.109375 103.230469 32.121094 103.230469 30.742188 C 103.230469 28.171875 105.105469 25.015625 107.277344 23.730469 C 108.460938 23.039062 109.546875 22.941406 110.4375 23.433594 C 111.324219 23.929688 111.71875 24.917969 111.71875 26.296875 C 111.71875 28.863281 109.84375 32.023438 107.671875 33.308594 C 106.980469 33.703125 106.390625 33.898438 105.699219 33.898438 C 105.203125 33.898438 104.808594 33.800781 104.515625 33.601562 Z M 107.574219 24.324219 C 105.5 25.507812 103.921875 28.371094 103.921875 30.742188 C 103.921875 31.828125 104.21875 32.617188 104.910156 32.910156 C 105.5 33.308594 106.390625 33.207031 107.277344 32.617188 C 109.351562 31.429688 110.929688 28.570312 110.929688 26.199219 C 110.929688 25.113281 110.632812 24.324219 109.941406 24.027344 C 109.746094 23.929688 109.449219 23.832031 109.152344 23.832031 C 108.660156 23.832031 108.167969 24.027344 107.574219 24.324219 Z M 107.574219 24.324219 " fill-opacity="1" fill-rule="nonzero"/><path fill="rgb(15.289307%, 22.749329%, 57.249451%)" d="M 114.78125 27.582031 C 113.890625 27.089844 113.496094 26.101562 113.496094 24.71875 C 113.496094 22.152344 115.371094 18.992188 117.542969 17.710938 C 118.730469 17.019531 119.816406 16.921875 120.703125 17.414062 C 121.589844 17.90625 121.984375 18.894531 121.984375 20.277344 C 121.984375 22.84375 120.109375 26.003906 117.9375 27.285156 C 117.246094 27.679688 116.65625 27.878906 115.964844 27.878906 C 115.570312 27.878906 115.175781 27.777344 114.78125 27.582031 Z M 117.9375 18.402344 C 115.867188 19.585938 114.285156 22.449219 114.285156 24.816406 C 114.285156 25.902344 114.582031 26.691406 115.273438 26.988281 C 115.867188 27.382812 116.753906 27.285156 117.644531 26.691406 C 119.714844 25.507812 121.296875 22.644531 121.296875 20.277344 C 121.296875 19.191406 121 18.402344 120.308594 18.105469 C 120.109375 18.007812 119.816406 17.90625 119.519531 17.90625 C 119.023438 17.90625 118.433594 18.007812 117.9375 18.402344 Z M 117.9375 18.402344 " fill-opacity="1" fill-rule="nonzero"/><path fill="rgb(78.039551%, 91.758728%, 98.429871%)" d="M 165.222656 57.886719 L 163.941406 62.824219 C 156.734375 57.789062 152.191406 57.691406 149.625 58.378906 L 151.699219 52.851562 C 158.511719 51.273438 161.769531 52.65625 165.222656 57.886719 Z M 165.222656 57.886719 " fill-opacity="1" fill-rule="nonzero"/><path fill="rgb(15.289307%, 22.749329%, 57.249451%)" d="M 90.792969 221.160156 C 96.121094 214.941406 102.242188 223.726562 105.105469 227.382812 C 107.082031 229.847656 113.792969 236.460938 113.101562 239.917969 C 112.804688 241.101562 112.707031 241.101562 111.523438 241.398438 C 110.335938 241.695312 109.054688 241.597656 107.871094 241.300781 C 101.550781 239.820312 96.519531 236.167969 93.65625 230.738281 C 93.554688 232.21875 93.554688 233.796875 93.554688 235.277344 C 93.554688 235.574219 93.160156 235.871094 92.867188 235.671875 C 92.273438 235.277344 91.679688 234.882812 91.089844 234.488281 C 88.917969 232.910156 89.902344 230.738281 89.3125 228.171875 C 88.621094 225.605469 89.210938 223.039062 90.792969 221.160156 Z M 90.792969 221.160156 " fill-opacity="1" fill-rule="nonzero"/><path fill="rgb(95.689392%, 50.588989%, 35.688782%)" d="M 94.640625 40.808594 C 94.742188 40.808594 94.9375 40.808594 95.035156 40.90625 L 93.949219 39.820312 C 94.148438 40.117188 94.347656 40.511719 94.640625 40.808594 Z M 94.640625 40.808594 " fill-opacity="1" fill-rule="nonzero"/><path fill="rgb(88.238525%, 90.589905%, 94.119263%)" d="M 114.582031 68.351562 L 114.484375 68.648438 C 114.484375 68.648438 114.582031 68.648438 114.582031 68.648438 C 114.484375 68.546875 114.582031 68.449219 114.582031 68.351562 Z M 114.582031 68.351562 " fill-opacity="1" fill-rule="nonzero"/><path fill="rgb(77.249146%, 86.669922%, 94.898987%)" d="M 163.839844 360.449219 C 165.222656 361.238281 167.394531 361.238281 168.679688 360.449219 C 169.960938 359.660156 170.058594 358.375 168.679688 357.683594 C 167.296875 356.992188 165.125 356.894531 163.839844 357.683594 C 162.460938 358.375 162.460938 359.660156 163.839844 360.449219 Z M 163.839844 360.449219 " fill-opacity="1" fill-rule="nonzero"/><path fill="rgb(77.249146%, 86.669922%, 94.898987%)" d="M 162.855469 294.410156 L 162.855469 358.375 C 162.855469 358.476562 162.855469 358.574219 162.953125 358.671875 C 163.050781 358.871094 163.25 358.96875 163.445312 358.96875 L 169.269531 358.96875 C 169.46875 358.96875 169.664062 358.871094 169.765625 358.671875 C 169.765625 358.574219 169.863281 358.472656 169.863281 358.375 L 169.863281 294.410156 C 169.863281 294.113281 169.566406 293.816406 169.269531 293.816406 L 163.445312 293.816406 C 163.050781 293.914062 162.855469 294.113281 162.855469 294.410156 Z M 162.855469 294.410156 " fill-opacity="1" fill-rule="nonzero"/><path fill="rgb(77.249146%, 86.669922%, 94.898987%)" d="M 162.855469 305.367188 C 162.855469 305.464844 162.855469 305.5625 162.953125 305.5625 C 162.953125 305.660156 162.855469 305.761719 162.855469 305.957031 C 162.855469 306.453125 163.152344 306.945312 163.839844 307.339844 C 165.222656 308.128906 167.394531 308.128906 168.679688 307.339844 C 169.371094 306.945312 169.664062 306.453125 169.664062 305.957031 C 169.664062 305.859375 169.664062 305.761719 169.566406 305.5625 C 169.566406 305.464844 169.664062 305.367188 169.664062 305.367188 L 169.664062 294.410156 C 169.664062 294.113281 169.371094 293.816406 169.074219 293.816406 L 163.25 293.816406 C 162.953125 293.816406 162.65625 294.113281 162.65625 294.410156 L 162.65625 305.367188 Z M 162.855469 305.367188 " fill-opacity="0.6275" fill-rule="nonzero"/><path fill="rgb(77.249146%, 86.669922%, 94.898987%)" d="M 347.15625 258.773438 C 348.539062 259.5625 350.710938 259.5625 351.992188 258.773438 C 353.375 257.984375 353.375 256.699219 351.992188 256.007812 C 350.609375 255.21875 348.4375 255.21875 347.15625 256.007812 C 345.773438 256.699219 345.773438 257.984375 347.15625 258.773438 Z M 347.15625 258.773438 " fill-opacity="1" fill-rule="nonzero"/><path fill="rgb(77.249146%, 86.669922%, 94.898987%)" d="M 346.167969 192.730469 L 346.167969 256.699219 C 346.167969 256.796875 346.167969 256.898438 346.265625 256.996094 C 346.367188 257.191406 346.5625 257.292969 346.761719 257.292969 L 352.585938 257.292969 C 352.78125 257.292969 352.980469 257.191406 353.078125 256.996094 C 353.078125 256.898438 353.175781 256.796875 353.175781 256.699219 L 353.175781 192.730469 C 353.175781 192.4375 352.882812 192.140625 352.585938 192.140625 L 346.660156 192.140625 C 346.367188 192.238281 346.167969 192.4375 346.167969 192.730469 Z M 346.167969 192.730469 " fill-opacity="1" fill-rule="nonzero"/><path fill="rgb(77.249146%, 86.669922%, 94.898987%)" d="M 346.167969 203.6875 C 346.167969 203.789062 346.167969 203.886719 346.265625 203.886719 C 346.265625 203.984375 346.167969 204.085938 346.167969 204.28125 C 346.167969 204.773438 346.464844 205.269531 347.15625 205.664062 C 348.539062 206.453125 350.710938 206.453125 351.992188 205.664062 C 352.683594 205.269531 352.980469 204.773438 352.980469 204.28125 C 352.980469 204.183594 352.980469 204.085938 352.882812 203.886719 C 352.882812 203.789062 352.980469 203.6875 352.980469 203.6875 L 352.980469 192.730469 C 352.980469 192.4375 352.683594 192.140625 352.386719 192.140625 L 346.660156 192.140625 C 346.367188 192.140625 346.070312 192.4375 346.070312 192.730469 L 346.070312 203.6875 Z M 346.167969 203.6875 " fill-opacity="0.6275" fill-rule="nonzero"/><path fill="rgb(77.249146%, 86.669922%, 94.898987%)" d="M 52.492188 295.296875 C 53.871094 296.085938 56.042969 296.085938 57.328125 295.296875 C 58.710938 294.507812 58.710938 293.222656 57.328125 292.53125 C 55.945312 291.742188 53.773438 291.742188 52.492188 292.53125 C 51.207031 293.324219 51.207031 294.605469 52.492188 295.296875 Z M 52.492188 295.296875 " fill-opacity="1" fill-rule="nonzero"/><path fill="rgb(77.249146%, 86.669922%, 94.898987%)" d="M 51.503906 229.355469 L 51.503906 293.324219 C 51.503906 293.421875 51.503906 293.519531 51.601562 293.617188 C 51.699219 293.816406 51.898438 293.914062 52.097656 293.914062 L 57.921875 293.914062 C 58.117188 293.914062 58.316406 293.816406 58.414062 293.617188 C 58.414062 293.519531 58.511719 293.421875 58.511719 293.324219 L 58.511719 229.355469 C 58.511719 229.058594 58.214844 228.761719 57.921875 228.761719 L 52.097656 228.761719 C 51.800781 228.761719 51.503906 229.058594 51.503906 229.355469 Z M 51.503906 229.355469 " fill-opacity="1" fill-rule="nonzero"/><path fill="rgb(77.249146%, 86.669922%, 94.898987%)" d="M 51.503906 240.3125 C 51.503906 240.410156 51.503906 240.511719 51.601562 240.511719 C 51.601562 240.609375 51.503906 240.707031 51.503906 240.90625 C 51.503906 241.398438 51.800781 241.890625 52.492188 242.285156 C 53.871094 243.078125 56.042969 243.078125 57.328125 242.285156 C 58.019531 241.890625 58.316406 241.398438 58.316406 240.90625 C 58.316406 240.804688 58.316406 240.707031 58.214844 240.511719 C 58.214844 240.410156 58.316406 240.3125 58.316406 240.3125 L 58.316406 229.355469 C 58.316406 229.058594 58.019531 228.761719 57.722656 228.761719 L 52.097656 228.761719 C 51.800781 228.761719 51.503906 229.058594 51.503906 229.355469 Z M 51.503906 240.3125 " fill-opacity="0.6275" fill-rule="nonzero"/><path fill="rgb(77.249146%, 86.669922%, 94.898987%)" d="M 355.941406 180.097656 L 356.335938 188.980469 L 335.507812 201.320312 L 336.496094 193.917969 Z M 355.941406 180.097656 " fill-opacity="1" fill-rule="nonzero"/><path fill="rgb(77.249146%, 86.669922%, 94.898987%)" d="M 44.199219 227.480469 L 44.199219 219.878906 L 66.902344 234.488281 L 65.421875 238.535156 Z M 44.199219 227.480469 " fill-opacity="1" fill-rule="nonzero"/><path fill="rgb(77.249146%, 86.669922%, 94.898987%)" d="M 353.175781 187.992188 L 247.058594 126 C 239.65625 121.65625 230.472656 121.65625 222.972656 125.902344 L 47.851562 225.898438 C 43.605469 228.367188 43.605469 234.488281 47.851562 236.859375 L 155.648438 299.148438 C 163.050781 303.492188 172.230469 303.492188 179.734375 299.148438 L 353.175781 198.949219 C 357.324219 196.484375 357.324219 190.363281 353.175781 187.992188 Z M 353.175781 187.992188 " fill-opacity="1" fill-rule="nonzero"/><path fill="rgb(93.328857%, 96.078491%, 98.429871%)" d="M 352.78125 176.445312 L 246.664062 114.449219 C 239.261719 110.105469 230.078125 110.105469 222.578125 114.351562 L 47.457031 214.351562 C 43.210938 216.820312 43.210938 222.9375 47.457031 225.308594 L 155.253906 287.597656 C 162.65625 291.941406 171.835938 291.941406 179.339844 287.597656 L 352.78125 187.402344 C 356.929688 184.933594 357.027344 178.910156 352.78125 176.445312 Z M 352.78125 176.445312 " fill-opacity="1" fill-rule="nonzero"/><path fill="rgb(64.309692%, 80.778503%, 93.328857%)" d="M 226.128906 241.101562 L 280.027344 210.007812 C 282.496094 208.625 282.496094 206.355469 280.027344 204.875 L 258.804688 192.632812 C 256.335938 191.25 252.390625 191.25 249.921875 192.632812 L 196.023438 223.726562 C 193.554688 225.109375 193.554688 227.382812 196.023438 228.863281 L 217.246094 241.101562 C 219.714844 242.484375 223.664062 242.484375 226.128906 241.101562 Z M 226.128906 241.101562 " fill-opacity="1" fill-rule="nonzero"/><path fill="rgb(64.309692%, 80.778503%, 93.328857%)" d="M 281.804688 203.492188 L 281.804688 208.625 L 221.6875 242.089844 L 194.246094 226.296875 L 194.246094 222.445312 Z M 281.804688 203.492188 " fill-opacity="1" fill-rule="nonzero"/><path fill="rgb(80.389404%, 83.529663%, 90.979004%)" d="M 226.128906 237.152344 L 280.027344 206.058594 C 282.496094 204.675781 282.496094 202.40625 280.027344 200.925781 L 258.804688 188.785156 C 256.335938 187.402344 252.390625 187.402344 249.921875 188.785156 L 196.023438 219.878906 C 193.554688 221.261719 193.554688 223.53125 196.023438 225.011719 L 217.246094 237.253906 C 219.714844 238.632812 223.664062 238.632812 226.128906 237.152344 Z M 226.128906 237.152344 " fill-opacity="1" fill-rule="nonzero"/><path fill="rgb(80.389404%, 83.529663%, 90.979004%)" d="M 214.582031 229.550781 L 266.800781 199.445312 L 262.160156 196.777344 L 210.039062 226.886719 Z M 214.582031 229.550781 " fill-opacity="1" fill-rule="nonzero"/><path fill="rgb(80.389404%, 83.529663%, 90.979004%)" d="M 222.476562 234.09375 L 274.601562 203.984375 L 270.058594 201.320312 L 217.839844 231.429688 Z M 222.476562 234.09375 " fill-opacity="1" fill-rule="nonzero"/><path fill="rgb(88.238525%, 90.589905%, 94.119263%)" d="M 265.714844 199.445312 L 214.582031 228.960938 L 211.027344 226.886719 L 262.160156 197.371094 Z M 265.714844 199.445312 " fill-opacity="1" fill-rule="nonzero"/><path fill="rgb(88.238525%, 90.589905%, 94.119263%)" d="M 273.613281 203.984375 L 222.476562 233.5 L 218.925781 231.429688 L 270.058594 201.914062 Z M 273.613281 203.984375 " fill-opacity="1" fill-rule="nonzero"/><path fill="rgb(88.238525%, 90.589905%, 94.119263%)" d="M 258.113281 194.3125 L 206.882812 223.828125 L 203.425781 221.753906 L 254.5625 192.238281 Z M 258.113281 194.3125 " fill-opacity="1" fill-rule="nonzero"/><path fill="rgb(77.249146%, 86.669922%, 94.898987%)" d="M 183.683594 237.746094 C 183.683594 238.15625 183.609375 238.558594 183.460938 238.960938 C 183.308594 239.359375 183.089844 239.75 182.796875 240.125 C 182.503906 240.503906 182.144531 240.863281 181.71875 241.199219 C 181.296875 241.539062 180.8125 241.855469 180.273438 242.144531 C 179.730469 242.433594 179.140625 242.691406 178.507812 242.917969 C 177.871094 243.144531 177.199219 243.335938 176.492188 243.492188 C 175.785156 243.648438 175.058594 243.765625 174.308594 243.84375 C 173.558594 243.925781 172.800781 243.964844 172.035156 243.964844 C 171.269531 243.964844 170.511719 243.925781 169.761719 243.84375 C 169.011719 243.765625 168.285156 243.648438 167.578125 243.492188 C 166.871094 243.335938 166.199219 243.144531 165.5625 242.917969 C 164.925781 242.691406 164.339844 242.433594 163.796875 242.144531 C 163.257812 241.855469 162.773438 241.539062 162.347656 241.199219 C 161.925781 240.863281 161.566406 240.503906 161.273438 240.125 C 160.980469 239.75 160.757812 239.359375 160.609375 238.960938 C 160.460938 238.558594 160.386719 238.15625 160.386719 237.746094 C 160.386719 237.335938 160.460938 236.933594 160.609375 236.53125 C 160.757812 236.132812 160.980469 235.742188 161.273438 235.367188 C 161.566406 234.988281 161.925781 234.628906 162.347656 234.289062 C 162.773438 233.953125 163.257812 233.636719 163.796875 233.347656 C 164.339844 233.058594 164.925781 232.800781 165.5625 232.574219 C 166.199219 232.347656 166.871094 232.15625 167.578125 232 C 168.285156 231.84375 169.011719 231.726562 169.761719 231.644531 C 170.511719 231.566406 171.269531 231.527344 172.035156 231.527344 C 172.800781 231.527344 173.558594 231.566406 174.308594 231.644531 C 175.058594 231.726562 175.785156 231.84375 176.492188 232 C 177.199219 232.15625 177.871094 232.347656 178.507812 232.574219 C 179.140625 232.800781 179.730469 233.058594 180.269531 233.347656 C 180.8125 233.636719 181.296875 233.953125 181.71875 234.289062 C 182.144531 234.628906 182.503906 234.988281 182.796875 235.367188 C 183.089844 235.742188 183.308594 236.132812 183.460938 236.53125 C 183.609375 236.933594 183.683594 237.335938 183.683594 237.746094 Z M 183.683594 237.746094 " fill-opacity="1" fill-rule="nonzero"/><path fill="rgb(64.309692%, 80.778503%, 93.328857%)" d="M 183.683594 234.6875 C 183.683594 235.09375 183.609375 235.5 183.460938 235.898438 C 183.308594 236.300781 183.089844 236.6875 182.796875 237.066406 C 182.503906 237.441406 182.144531 237.800781 181.71875 238.140625 C 181.296875 238.480469 180.8125 238.792969 180.273438 239.082031 C 179.730469 239.371094 179.140625 239.628906 178.507812 239.855469 C 177.871094 240.082031 177.199219 240.273438 176.492188 240.429688 C 175.785156 240.585938 175.058594 240.707031 174.308594 240.785156 C 173.558594 240.863281 172.800781 240.90625 172.035156 240.90625 C 171.269531 240.90625 170.511719 240.863281 169.761719 240.785156 C 169.011719 240.707031 168.285156 240.585938 167.578125 240.429688 C 166.871094 240.273438 166.199219 240.082031 165.5625 239.855469 C 164.925781 239.628906 164.339844 239.371094 163.796875 239.082031 C 163.257812 238.792969 162.773438 238.480469 162.347656 238.140625 C 161.925781 237.800781 161.566406 237.441406 161.273438 237.066406 C 160.980469 236.6875 160.757812 236.300781 160.609375 235.898438 C 160.460938 235.5 160.386719 235.09375 160.386719 234.6875 C 160.386719 234.277344 160.460938 233.871094 160.609375 233.472656 C 160.757812 233.070312 160.980469 232.683594 161.273438 232.304688 C 161.566406 231.929688 161.925781 231.570312 162.347656 231.230469 C 162.773438 230.890625 163.257812 230.578125 163.796875 230.289062 C 164.339844 230 164.925781 229.742188 165.5625 229.515625 C 166.199219 229.289062 166.871094 229.097656 167.578125 228.941406 C 168.285156 228.785156 169.011719 228.664062 169.761719 228.585938 C 170.511719 228.507812 171.269531 228.464844 172.035156 228.464844 C 172.800781 228.464844 173.558594 228.507812 174.308594 228.585938 C 175.058594 228.664062 175.785156 228.785156 176.492188 228.941406 C 177.199219 229.097656 177.871094 229.289062 178.507812 229.515625 C 179.140625 229.742188 179.730469 230 180.269531 230.289062 C 180.8125 230.578125 181.296875 230.890625 181.71875 231.230469 C 182.144531 231.570312 182.503906 231.929688 182.796875 232.304688 C 183.089844 232.683594 183.308594 233.070312 183.460938 233.472656 C 183.609375 233.871094 183.683594 234.277344 183.683594 234.6875 Z M 183.683594 234.6875 " fill-opacity="1" fill-rule="nonzero"/><path fill="rgb(15.289307%, 22.749329%, 57.249451%)" d="M 165.914062 322.640625 L 164.730469 321.949219 C 164.53125 321.851562 164.53125 321.652344 164.730469 321.554688 L 165.914062 320.863281 C 166.113281 320.765625 166.40625 320.765625 166.605469 320.863281 L 167.789062 321.554688 C 167.988281 321.652344 167.988281 321.851562 167.789062 321.949219 L 166.605469 322.640625 C 166.40625 322.738281 166.113281 322.738281 165.914062 322.640625 Z M 165.914062 322.640625 " fill-opacity="1" fill-rule="nonzero"/><path fill="rgb(15.289307%, 22.749329%, 57.249451%)" d="M 235.210938 347.023438 L 233.632812 347.023438 C 232.746094 347.023438 232.054688 346.332031 232.054688 345.445312 L 232.054688 337.449219 C 232.054688 336.558594 232.746094 335.867188 233.632812 335.867188 L 235.210938 335.867188 C 236.101562 335.867188 236.792969 336.558594 236.792969 337.449219 L 236.792969 345.445312 C 236.691406 346.332031 236.003906 347.023438 235.210938 347.023438 Z M 235.210938 347.023438 " fill-opacity="1" fill-rule="nonzero"/><path fill="rgb(95.689392%, 50.588989%, 35.688782%)" d="M 236.496094 274.765625 L 236.296875 278.316406 L 234.226562 328.5625 C 234.226562 328.761719 234.226562 328.761719 234.226562 328.664062 C 234.421875 329.058594 234.621094 330.042969 234.71875 331.328125 C 231.660156 333.597656 228.992188 334.882812 224.847656 334.683594 C 225.042969 332.019531 224.253906 327.675781 224.253906 327.378906 C 224.15625 326.886719 220.207031 277.230469 220.207031 277.230469 C 226.328125 277.230469 230.375 274.371094 236.496094 274.765625 Z M 236.496094 274.765625 " fill-opacity="1" fill-rule="nonzero"/><path fill="rgb(15.289307%, 22.749329%, 57.249451%)" d="M 225.441406 340.507812 C 221.492188 343.371094 221.886719 345.9375 215.863281 344.457031 C 213.988281 343.964844 212.015625 343.273438 210.730469 341.988281 C 209.347656 340.707031 208.757812 338.632812 209.742188 337.054688 C 210.632812 335.671875 212.410156 334.980469 214.085938 334.683594 C 216.851562 334.09375 219.8125 333.894531 222.675781 334.191406 C 224.058594 334.289062 225.539062 334.585938 226.527344 335.472656 C 228.597656 337.152344 227.316406 339.324219 225.441406 340.507812 Z M 225.441406 340.507812 " fill-opacity="1" fill-rule="nonzero"/><path fill="rgb(95.689392%, 50.588989%, 35.688782%)" d="M 227.414062 329.453125 C 226.625 329.648438 225.933594 330.441406 224.75 331.425781 C 221.789062 333.894531 218.726562 336.460938 216.554688 339.816406 C 217.148438 341.691406 219.21875 342.976562 221.390625 343.667969 C 223.070312 343.171875 224.648438 342.582031 225.144531 342.285156 C 228.5 340.804688 231.460938 338.335938 233.535156 335.375 C 233.832031 334.980469 234.027344 334.488281 233.730469 334.191406 C 232.644531 333.105469 231.460938 332.019531 230.375 330.933594 C 227.019531 327.675781 222.082031 332.316406 218.726562 334.09375 C 217.445312 334.78125 215.964844 335.671875 215.964844 337.152344 C 215.964844 338.535156 217.148438 339.519531 218.332031 340.113281 C 219.515625 340.707031 220.800781 341.003906 222.183594 341.199219 Z M 227.414062 329.453125 " fill-opacity="1" fill-rule="nonzero"/><path fill="rgb(15.289307%, 22.749329%, 57.249451%)" d="M 235.804688 330.042969 C 234.421875 329.550781 232.84375 329.648438 230.96875 330.734375 C 228.597656 332.117188 226.921875 334.488281 224.847656 336.265625 C 221.984375 338.730469 219.21875 340.113281 215.765625 338.535156 C 214.582031 339.226562 213.792969 340.015625 213.890625 340.902344 C 213.988281 342.285156 216.359375 343.964844 217.34375 344.65625 C 220.703125 346.925781 226.03125 343.273438 228.699219 341.890625 C 230.867188 340.804688 233.039062 341.003906 235.113281 340.113281 C 237.777344 338.929688 238.570312 332.609375 235.804688 330.042969 Z M 235.804688 330.042969 " fill-opacity="1" fill-rule="nonzero"/><path fill="rgb(15.289307%, 22.749329%, 57.249451%)" d="M 263.148438 329.355469 L 261.570312 329.355469 C 260.679688 329.355469 259.988281 328.664062 259.988281 327.773438 L 259.988281 319.777344 C 259.988281 318.890625 260.679688 318.199219 261.570312 318.199219 L 263.148438 318.199219 C 264.039062 318.199219 264.726562 318.890625 264.726562 319.777344 L 264.726562 327.773438 C 264.726562 328.664062 264.039062 329.355469 263.148438 329.355469 Z M 263.148438 329.355469 " fill-opacity="1" fill-rule="nonzero"/><path fill="rgb(95.689392%, 50.588989%, 35.688782%)" d="M 264.925781 268.839844 L 264.726562 267.261719 L 262.65625 311.289062 C 262.65625 311.484375 262.65625 311.484375 262.65625 311.386719 C 262.851562 311.78125 263.050781 312.769531 263.148438 314.054688 C 260.089844 316.324219 257.421875 317.605469 253.277344 317.410156 C 253.476562 314.742188 252.683594 310.398438 252.683594 310.105469 C 252.585938 309.609375 249.625 268.25 249.625 268.25 C 255.84375 268.148438 258.804688 268.445312 264.925781 268.839844 Z M 264.925781 268.839844 " fill-opacity="1" fill-rule="nonzero"/><path fill="rgb(15.289307%, 22.749329%, 57.249451%)" d="M 253.96875 323.234375 C 250.019531 326.097656 250.414062 328.664062 244.394531 327.183594 C 242.515625 326.6875 240.542969 325.996094 239.261719 324.714844 C 237.878906 323.429688 237.285156 321.359375 238.273438 319.777344 C 239.160156 318.394531 240.9375 317.707031 242.617188 317.410156 C 245.378906 316.816406 248.339844 316.621094 251.203125 316.914062 C 252.585938 317.015625 254.066406 317.308594 255.054688 318.199219 C 257.128906 319.777344 255.746094 321.949219 253.96875 323.234375 Z M 253.96875 323.234375 " fill-opacity="1" fill-rule="nonzero"/><path fill="rgb(95.689392%, 50.588989%, 35.688782%)" d="M 255.84375 312.078125 C 255.054688 312.277344 254.363281 313.066406 253.179688 314.054688 C 250.21875 316.519531 247.15625 319.085938 244.984375 322.445312 C 245.578125 324.320312 247.652344 325.601562 249.824219 326.292969 C 251.5 325.800781 253.078125 325.207031 253.574219 324.910156 C 256.929688 323.429688 259.890625 320.960938 261.964844 318 C 262.261719 317.605469 262.457031 317.113281 262.160156 316.816406 C 261.074219 315.730469 259.890625 314.644531 258.804688 313.558594 C 255.449219 310.300781 250.511719 314.941406 247.15625 316.71875 C 245.875 317.410156 244.394531 318.296875 244.394531 319.777344 C 244.394531 321.160156 245.578125 322.148438 246.761719 322.738281 C 247.945312 323.332031 249.230469 323.628906 250.613281 323.824219 Z M 255.84375 312.078125 " fill-opacity="1" fill-rule="nonzero"/><path fill="rgb(15.289307%, 22.749329%, 57.249451%)" d="M 264.234375 312.671875 C 262.851562 312.175781 261.273438 312.277344 259.398438 313.363281 C 257.027344 314.742188 255.351562 317.113281 253.277344 318.890625 C 250.414062 321.359375 247.652344 322.738281 244.195312 321.160156 C 243.011719 321.851562 242.222656 322.640625 242.320312 323.53125 C 242.417969 324.910156 244.789062 326.589844 245.773438 327.28125 C 249.132812 329.550781 254.460938 325.898438 257.128906 324.515625 C 259.300781 323.429688 261.472656 323.628906 263.542969 322.738281 C 266.210938 321.554688 267.097656 315.238281 264.234375 312.671875 Z M 264.234375 312.671875 " fill-opacity="1" fill-rule="nonzero"/><path fill="rgb(77.249146%, 86.669922%, 94.898987%)" d="M 200.761719 167.855469 C 200.761719 167.855469 194.839844 183.945312 200.761719 187.402344 C 201.648438 187.894531 202.636719 188.488281 203.625 189.078125 L 214.777344 195.496094 C 216.359375 196.382812 216.359375 197.863281 214.777344 198.851562 L 199.082031 207.933594 C 197.503906 208.824219 194.9375 208.824219 193.355469 207.933594 L 185.363281 203.195312 C 185.363281 203.195312 185.261719 203.195312 185.261719 203.195312 C 184.375 202.601562 183.484375 202.109375 182.695312 201.617188 L 182.300781 201.417969 C 182.300781 201.417969 182.203125 201.417969 182.203125 201.320312 C 180.621094 200.332031 179.539062 199.640625 179.539062 199.640625 C 179.539062 199.640625 174.503906 195.988281 174.503906 182.960938 Z M 200.761719 167.855469 " fill-opacity="1" fill-rule="nonzero"/><path fill="rgb(94.509888%, 95.289612%, 97.24884%)" d="M 174.699219 179.898438 C 174.699219 192.929688 179.734375 196.582031 179.734375 196.582031 C 179.734375 196.582031 180.820312 197.273438 182.5 198.261719 C 182.5 198.261719 182.597656 198.261719 182.597656 198.359375 L 182.894531 198.554688 C 183.683594 199.050781 184.472656 199.542969 185.460938 200.136719 C 185.460938 200.136719 185.558594 200.136719 185.558594 200.136719 L 186.449219 200.726562 L 193.457031 204.875 C 195.035156 205.761719 197.601562 205.859375 199.179688 204.875 L 214.878906 195.792969 C 216.457031 194.902344 216.457031 193.421875 214.878906 192.4375 L 207.769531 188.386719 L 203.625 186.019531 C 202.636719 185.425781 201.648438 184.835938 200.761719 184.339844 C 195.035156 180.984375 200.464844 165.585938 200.761719 164.894531 Z M 174.699219 179.898438 " fill-opacity="1" fill-rule="nonzero"/><path fill="rgb(93.328857%, 96.078491%, 98.429871%)" d="M 174.699219 179.898438 C 174.699219 192.929688 179.734375 196.582031 179.734375 196.582031 C 179.734375 196.582031 180.820312 197.273438 182.5 198.261719 C 182.5 198.261719 182.597656 198.261719 182.597656 198.359375 L 182.894531 198.554688 C 183.683594 199.050781 184.472656 199.542969 185.460938 200.136719 C 185.460938 200.136719 185.558594 200.136719 185.558594 200.136719 L 186.449219 200.726562 L 207.867188 188.488281 L 203.722656 186.117188 C 202.734375 185.527344 201.75 184.933594 200.859375 184.441406 C 195.132812 181.082031 200.5625 165.683594 200.859375 164.992188 Z M 174.699219 179.898438 " fill-opacity="1" fill-rule="nonzero"/><path fill="rgb(100%, 100%, 100%)" d="M 136.890625 129.851562 L 220.109375 81.777344 C 222.183594 80.589844 223.761719 81.085938 225.539062 82.566406 L 229.386719 84.738281 L 225.242188 87.699219 L 225.242188 152.753906 C 225.242188 156.011719 222.972656 160.058594 220.109375 161.734375 L 138.667969 208.625 L 138.667969 212.277344 C 138.667969 212.769531 138.078125 213.164062 137.582031 212.871094 L 133.632812 210.203125 C 132.449219 209.808594 131.660156 208.527344 131.660156 206.652344 L 131.660156 138.832031 C 131.757812 135.476562 134.03125 131.429688 136.890625 129.851562 Z M 136.890625 129.851562 " fill-opacity="1" fill-rule="nonzero"/><path fill="rgb(28.239441%, 25.878906%, 33.329773%)" d="M 137.386719 142.089844 L 137.386719 209.910156 C 137.386719 213.164062 139.65625 214.546875 142.519531 212.871094 L 225.734375 164.796875 C 228.597656 163.117188 230.867188 159.167969 230.867188 155.8125 L 230.867188 87.996094 C 230.867188 84.738281 228.597656 83.355469 225.734375 85.035156 L 142.519531 133.109375 C 139.65625 134.6875 137.386719 138.734375 137.386719 142.089844 Z M 137.386719 142.089844 " fill-opacity="1" fill-rule="nonzero"/><path fill="rgb(36.859131%, 47.059631%, 72.938538%)" d="M 224.648438 158.28125 L 224.648438 92.929688 L 143.605469 139.722656 L 143.605469 205.070312 Z M 224.648438 158.28125 " fill-opacity="1" fill-rule="nonzero"/><path fill="rgb(77.249146%, 86.669922%, 94.898987%)" d="M 137.386719 196.777344 L 137.386719 209.910156 C 137.386719 213.164062 139.65625 214.546875 142.519531 212.871094 L 225.734375 164.796875 C 228.597656 163.117188 230.867188 159.167969 230.867188 155.8125 L 230.867188 142.683594 Z M 137.386719 196.777344 " fill-opacity="1" fill-rule="nonzero"/><path fill="rgb(77.249146%, 86.669922%, 94.898987%)" d="M 138.570312 213.757812 C 137.386719 213.066406 136.792969 211.683594 136.792969 209.910156 L 136.792969 196.484375 L 231.558594 141.792969 L 231.558594 155.910156 C 231.558594 159.464844 229.191406 163.609375 226.128906 165.386719 L 142.914062 213.460938 C 142.027344 213.957031 141.136719 214.25 140.347656 214.25 C 139.65625 214.152344 139.0625 214.054688 138.570312 213.757812 Z M 137.976562 197.175781 L 137.976562 209.910156 C 137.976562 211.289062 138.371094 212.277344 139.164062 212.769531 C 139.953125 213.265625 141.039062 213.066406 142.222656 212.375 L 225.441406 164.300781 C 228.105469 162.722656 230.277344 158.972656 230.277344 155.910156 L 230.277344 143.867188 Z M 137.976562 197.175781 " fill-opacity="1" fill-rule="nonzero"/><path fill="rgb(94.509888%, 95.289612%, 97.648621%)" d="M 186.84375 178.023438 C 186.84375 179.996094 188.222656 180.789062 190 179.800781 C 191.777344 178.8125 193.160156 176.34375 193.160156 174.371094 C 193.160156 172.398438 191.777344 171.605469 190 172.59375 C 188.222656 173.582031 186.84375 176.050781 186.84375 178.023438 Z M 186.84375 178.023438 " fill-opacity="1" fill-rule="nonzero"/><path fill="rgb(64.309692%, 80.778503%, 93.328857%)" d="M 189.703125 122.25 L 211.621094 109.613281 L 211.621094 125.210938 L 189.703125 137.847656 Z M 189.703125 122.25 " fill-opacity="1" fill-rule="nonzero"/><path fill="rgb(64.309692%, 80.778503%, 93.328857%)" d="M 163.445312 137.453125 L 185.363281 124.816406 L 185.363281 140.414062 L 163.445312 153.046875 Z M 163.445312 137.453125 " fill-opacity="1" fill-rule="nonzero"/><path fill="rgb(64.309692%, 80.778503%, 93.328857%)" d="M 189.703125 142.980469 L 211.621094 130.246094 L 211.621094 145.941406 L 189.703125 158.578125 Z M 189.703125 142.980469 " fill-opacity="1" fill-rule="nonzero"/><path fill="rgb(64.309692%, 80.778503%, 93.328857%)" d="M 163.445312 158.082031 L 185.363281 145.449219 L 185.363281 161.042969 L 163.445312 173.777344 Z M 163.445312 158.082031 " fill-opacity="1" fill-rule="nonzero"/><path fill="rgb(95.689392%, 50.588989%, 35.688782%)" d="M 290.789062 230.144531 C 290.886719 228.960938 290.886719 227.675781 290.886719 226.394531 C 290.097656 224.8125 289.40625 223.332031 289.40625 223.234375 L 265.125 206.355469 C 264.234375 205.566406 263.148438 205.171875 261.964844 205.171875 C 261.765625 205.171875 261.570312 205.171875 261.371094 205.269531 C 260.484375 205.464844 259.59375 205.960938 258.902344 206.652344 C 257.226562 208.425781 257.324219 211.289062 259.199219 212.871094 L 282.992188 233.304688 C 282.992188 233.304688 282.992188 233.304688 283.089844 233.304688 C 285.851562 235.871094 290.394531 233.894531 290.789062 230.144531 Z M 290.789062 230.144531 " fill-opacity="1" fill-rule="nonzero"/><path fill="rgb(95.689392%, 50.588989%, 35.688782%)" d="M 265.3125 206.894531 C 265.660156 207.214844 265.980469 207.5625 266.269531 207.929688 C 266.558594 208.300781 266.816406 208.6875 267.039062 209.089844 C 267.261719 209.492188 267.445312 209.90625 267.589844 210.324219 C 267.734375 210.746094 267.839844 211.167969 267.90625 211.589844 C 267.96875 212.011719 267.992188 212.429688 267.972656 212.835938 C 267.949219 213.242188 267.890625 213.636719 267.785156 214.015625 C 267.679688 214.390625 267.539062 214.746094 267.355469 215.082031 C 267.171875 215.414062 266.953125 215.71875 266.695312 215.992188 C 266.441406 216.269531 266.152344 216.507812 265.832031 216.714844 C 265.515625 216.925781 265.171875 217.09375 264.800781 217.222656 C 264.433594 217.355469 264.046875 217.445312 263.640625 217.496094 C 263.234375 217.546875 262.820312 217.554688 262.394531 217.523438 C 261.96875 217.488281 261.539062 217.414062 261.109375 217.300781 C 260.679688 217.183594 260.253906 217.03125 259.835938 216.839844 C 259.417969 216.648438 259.015625 216.421875 258.625 216.15625 C 258.234375 215.894531 257.867188 215.601562 257.519531 215.28125 C 257.171875 214.960938 256.855469 214.613281 256.5625 214.242188 C 256.273438 213.875 256.019531 213.488281 255.796875 213.085938 C 255.574219 212.683594 255.390625 212.269531 255.242188 211.847656 C 255.097656 211.429688 254.992188 211.007812 254.929688 210.585938 C 254.863281 210.160156 254.84375 209.746094 254.863281 209.339844 C 254.882812 208.929688 254.945312 208.539062 255.046875 208.160156 C 255.152344 207.78125 255.296875 207.425781 255.480469 207.09375 C 255.664062 206.761719 255.882812 206.457031 256.136719 206.183594 C 256.394531 205.90625 256.679688 205.664062 257 205.457031 C 257.316406 205.25 257.664062 205.082031 258.03125 204.949219 C 258.398438 204.820312 258.789062 204.726562 259.191406 204.679688 C 259.597656 204.628906 260.015625 204.621094 260.441406 204.652344 C 260.867188 204.6875 261.292969 204.761719 261.722656 204.875 C 262.15625 204.988281 262.578125 205.144531 262.996094 205.335938 C 263.414062 205.527344 263.820312 205.753906 264.210938 206.015625 C 264.597656 206.277344 264.96875 206.570312 265.3125 206.894531 Z M 265.3125 206.894531 " fill-opacity="1" fill-rule="nonzero"/><path fill="rgb(15.289307%, 22.749329%, 57.249451%)" d="M 226.425781 272 L 241.234375 263.511719 C 246.960938 260.648438 251.5 264.203125 257.621094 265.980469 L 256.832031 265.1875 L 259.695312 260.648438 L 293.847656 258.277344 C 305.792969 265.089844 308.164062 294.113281 308.164062 294.113281 L 308.164062 294.308594 C 309.546875 306.15625 291.183594 315.039062 276.96875 317.113281 C 271.933594 317.902344 266.898438 316.914062 262.457031 314.546875 L 260.089844 313.261719 L 225.835938 294.902344 C 215.46875 289.273438 215.863281 277.332031 226.425781 272 Z M 226.425781 272 " fill-opacity="1" fill-rule="nonzero"/><path fill="rgb(26.269531%, 43.919373%, 71.369934%)" d="M 296.21875 253.144531 C 296.121094 255.121094 296.121094 257.09375 296.316406 259.167969 C 296.414062 260.253906 295.921875 261.238281 295.035156 261.734375 C 293.257812 262.820312 291.480469 263.707031 289.703125 264.496094 C 284.371094 266.769531 278.152344 268.050781 272.429688 266.769531 C 272.230469 266.667969 271.933594 266.667969 271.738281 266.570312 C 268.480469 265.683594 261.273438 263.808594 260.679688 259.660156 C 260.679688 259.464844 260.582031 259.363281 260.582031 259.167969 C 260.582031 258.773438 260.582031 258.378906 260.679688 257.984375 L 260.679688 239.621094 C 258.902344 234.289062 255.648438 230.539062 257.226562 223.828125 C 258.113281 220.371094 259.398438 217.609375 261.074219 215.238281 C 264.136719 211.09375 268.480469 208.527344 274.007812 206.847656 C 275.785156 206.355469 277.460938 205.960938 279.042969 205.566406 C 281.804688 204.972656 285.65625 204.675781 289.210938 205.171875 C 292.761719 205.664062 296.21875 206.847656 298.390625 209.21875 C 298.6875 209.511719 298.882812 209.808594 299.179688 210.203125 C 303.425781 216.621094 301.152344 225.503906 299.671875 232.414062 C 298.09375 239.425781 296.515625 246.234375 296.21875 253.144531 Z M 296.21875 253.144531 " fill-opacity="1" fill-rule="nonzero"/><path fill="rgb(26.269531%, 43.919373%, 71.369934%)" d="M 272.824219 195.398438 C 272.824219 195.398438 272.824219 195.496094 272.824219 195.398438 C 272.921875 195.398438 272.921875 195.199219 272.921875 195.101562 C 272.921875 195.296875 272.921875 195.398438 272.824219 195.398438 Z M 272.824219 195.398438 " fill-opacity="1" fill-rule="nonzero"/><path fill="rgb(95.689392%, 50.588989%, 35.688782%)" d="M 288.421875 211.882812 L 275.6875 211.882812 L 274.105469 202.503906 L 272.921875 195.398438 L 285.65625 195.398438 Z M 288.421875 211.882812 " fill-opacity="1" fill-rule="nonzero"/><path fill="rgb(95.689392%, 50.588989%, 35.688782%)" d="M 282.398438 197.863281 L 276.082031 207.539062 L 275.6875 207.539062 L 274.105469 198.0625 Z M 282.398438 197.863281 " fill-opacity="1" fill-rule="nonzero"/><path fill="rgb(95.689392%, 50.588989%, 35.688782%)" d="M 273.808594 192.4375 C 274.105469 192.535156 274.304688 192.535156 274.601562 192.535156 C 274.601562 192.4375 274.601562 192.4375 274.699219 192.335938 Z M 273.808594 192.4375 " fill-opacity="1" fill-rule="nonzero"/><path fill="rgb(95.689392%, 50.588989%, 35.688782%)" d="M 269.863281 200.828125 C 269.664062 200.828125 269.566406 200.828125 269.367188 200.925781 L 270.550781 199.839844 C 270.355469 200.136719 270.058594 200.433594 269.863281 200.828125 Z M 269.863281 200.828125 " fill-opacity="1" fill-rule="nonzero"/><path fill="rgb(95.689392%, 50.588989%, 35.688782%)" d="M 289.011719 209.414062 C 287.039062 212.375 280.324219 211.289062 273.910156 207.046875 C 275.6875 206.550781 277.460938 206.15625 279.042969 205.761719 C 281.804688 205.171875 285.65625 204.875 289.210938 205.367188 C 289.800781 206.945312 289.703125 208.328125 289.011719 209.414062 Z M 289.011719 209.414062 " fill-opacity="1" fill-rule="nonzero"/><path fill="rgb(26.269531%, 43.919373%, 71.369934%)" d="M 273.21875 189.871094 C 273.316406 189.871094 273.316406 189.671875 273.316406 189.574219 C 273.316406 189.671875 273.21875 189.769531 273.21875 189.871094 Z M 273.21875 189.871094 " fill-opacity="1" fill-rule="nonzero"/><path fill="rgb(95.689392%, 50.588989%, 35.688782%)" d="M 264.53125 185.03125 C 264.234375 188.785156 264.53125 192.535156 266.503906 195.59375 C 268.578125 198.949219 272.429688 200.53125 276.082031 201.023438 C 278.152344 201.320312 280.226562 201.222656 282.199219 200.332031 C 285.851562 198.65625 287.925781 194.410156 289.210938 190.265625 C 289.703125 188.683594 290.097656 187.105469 290.296875 185.527344 C 290.589844 183.75 290.589844 181.875 290.296875 179.996094 C 289.605469 176.050781 287.335938 172.691406 284.371094 170.421875 C 281.410156 168.152344 277.859375 166.867188 274.304688 166.078125 C 272.527344 165.683594 270.652344 165.488281 268.972656 166.175781 C 267.886719 166.671875 266.898438 167.660156 266.605469 168.84375 C 266.40625 169.238281 266.40625 169.730469 266.40625 170.226562 C 265.914062 173.582031 265.519531 177.035156 265.023438 180.390625 C 264.925781 181.875 264.628906 183.453125 264.53125 185.03125 Z M 264.53125 185.03125 " fill-opacity="1" fill-rule="nonzero"/><path fill="rgb(15.289307%, 22.749329%, 57.249451%)" d="M 293.949219 180.492188 C 293.75 183.058594 292.960938 185.921875 291.675781 188.683594 C 290.097656 192.039062 287.628906 195.398438 284.472656 197.371094 C 281.90625 198.949219 276.871094 200.234375 274.699219 197.371094 C 272.625 194.609375 274.402344 190.066406 272.328125 187.300781 C 271.738281 186.511719 270.847656 185.921875 270.058594 185.328125 C 268.183594 184.046875 266.40625 182.464844 265.125 180.589844 C 261.964844 175.753906 263.445312 166.769531 268.875 163.90625 C 273.019531 161.734375 278.746094 161.539062 283.089844 163.214844 C 284.570312 163.808594 285.953125 164.597656 287.234375 165.488281 C 287.335938 165.585938 287.335938 165.585938 287.433594 165.683594 C 291.675781 169.140625 294.34375 174.863281 293.949219 180.492188 Z M 293.949219 180.492188 " fill-opacity="1" fill-rule="nonzero"/><path fill="rgb(95.689392%, 50.588989%, 35.688782%)" d="M 274.402344 186.90625 C 274.601562 187.105469 274.894531 187.105469 275.191406 187.105469 C 275.191406 187.007812 275.191406 187.007812 275.289062 186.90625 Z M 274.402344 186.90625 " fill-opacity="1" fill-rule="nonzero"/><path fill="rgb(95.689392%, 50.588989%, 35.688782%)" d="M 277.957031 188.386719 C 277.859375 189.671875 277.167969 190.757812 276.375 191.746094 C 275.882812 192.335938 275.289062 192.929688 274.601562 193.421875 C 273.910156 193.816406 273.019531 194.015625 272.328125 193.71875 C 269.960938 192.929688 270.550781 189.375 271.441406 187.699219 C 272.132812 186.414062 273.515625 185.425781 274.894531 185.425781 C 276.671875 185.328125 278.054688 186.613281 277.957031 188.386719 Z M 277.957031 188.386719 " fill-opacity="1" fill-rule="nonzero"/><path fill="rgb(15.289307%, 22.749329%, 57.249451%)" d="M 271.636719 224.125 C 269.960938 221.160156 268.578125 219.089844 265.023438 219.679688 C 262.554688 220.074219 260.1875 220.964844 257.816406 221.753906 C 257.621094 222.445312 257.421875 223.136719 257.226562 223.925781 C 255.546875 230.636719 258.902344 234.488281 260.679688 239.71875 L 260.679688 258.082031 C 260.679688 258.476562 260.679688 258.871094 260.582031 259.265625 C 260.582031 259.464844 260.582031 259.5625 260.679688 259.757812 C 261.371094 263.808594 268.480469 265.78125 271.738281 266.667969 C 271.933594 266.769531 272.230469 266.769531 272.429688 266.867188 L 272.429688 225.308594 C 272.132812 224.914062 271.835938 224.617188 271.636719 224.125 Z M 271.636719 224.125 " fill-opacity="1" fill-rule="nonzero"/><path fill="rgb(15.289307%, 22.749329%, 57.249451%)" d="M 279.238281 165.488281 C 279.4375 165.488281 279.632812 165.488281 279.832031 165.585938 Z M 279.238281 165.488281 " fill-opacity="1" fill-rule="nonzero"/><path fill="rgb(95.689392%, 50.588989%, 35.688782%)" d="M 257.421875 256.699219 C 257.523438 255.515625 257.523438 254.230469 257.523438 252.949219 C 256.730469 251.367188 256.042969 249.886719 256.042969 249.789062 L 231.757812 232.910156 C 230.867188 232.121094 229.78125 231.722656 228.597656 231.722656 C 228.402344 231.722656 228.203125 231.722656 228.007812 231.824219 C 227.117188 232.019531 226.230469 232.515625 225.539062 233.207031 C 223.859375 234.980469 223.960938 237.84375 225.835938 239.425781 L 249.625 259.859375 C 249.625 259.859375 249.625 259.859375 249.722656 259.859375 C 252.585938 262.425781 257.027344 260.449219 257.421875 256.699219 Z M 257.421875 256.699219 " fill-opacity="1" fill-rule="nonzero"/><path fill="rgb(95.689392%, 50.588989%, 35.688782%)" d="M 232.011719 233.542969 C 232.359375 233.863281 232.679688 234.210938 232.96875 234.582031 C 233.257812 234.949219 233.515625 235.335938 233.738281 235.738281 C 233.957031 236.140625 234.144531 236.554688 234.289062 236.976562 C 234.433594 237.394531 234.539062 237.816406 234.605469 238.238281 C 234.667969 238.664062 234.691406 239.078125 234.671875 239.484375 C 234.648438 239.894531 234.589844 240.285156 234.484375 240.664062 C 234.378906 241.042969 234.238281 241.398438 234.054688 241.730469 C 233.871094 242.0625 233.652344 242.367188 233.394531 242.640625 C 233.136719 242.917969 232.851562 243.160156 232.53125 243.367188 C 232.214844 243.574219 231.871094 243.742188 231.5 243.875 C 231.132812 244.003906 230.746094 244.097656 230.339844 244.144531 C 229.933594 244.195312 229.519531 244.203125 229.09375 244.171875 C 228.667969 244.136719 228.238281 244.066406 227.808594 243.949219 C 227.378906 243.835938 226.953125 243.679688 226.535156 243.488281 C 226.117188 243.296875 225.710938 243.070312 225.324219 242.808594 C 224.933594 242.546875 224.566406 242.253906 224.21875 241.929688 C 223.871094 241.609375 223.554688 241.261719 223.261719 240.894531 C 222.972656 240.523438 222.71875 240.136719 222.496094 239.734375 C 222.273438 239.332031 222.089844 238.917969 221.941406 238.5 C 221.796875 238.078125 221.691406 237.65625 221.628906 237.234375 C 221.5625 236.8125 221.539062 236.394531 221.5625 235.988281 C 221.582031 235.582031 221.644531 235.1875 221.746094 234.808594 C 221.851562 234.433594 221.996094 234.078125 222.179688 233.742188 C 222.363281 233.410156 222.582031 233.105469 222.835938 232.832031 C 223.09375 232.554688 223.378906 232.316406 223.699219 232.109375 C 224.015625 231.898438 224.359375 231.730469 224.730469 231.601562 C 225.097656 231.46875 225.488281 231.378906 225.890625 231.328125 C 226.296875 231.277344 226.714844 231.269531 227.140625 231.300781 C 227.566406 231.335938 227.992188 231.410156 228.421875 231.523438 C 228.855469 231.640625 229.277344 231.792969 229.695312 231.984375 C 230.113281 232.175781 230.519531 232.40625 230.910156 232.667969 C 231.296875 232.929688 231.667969 233.222656 232.011719 233.542969 Z M 232.011719 233.542969 " fill-opacity="1" fill-rule="nonzero"/><path fill="rgb(95.689392%, 50.588989%, 35.688782%)" d="M 230.769531 235.082031 C 231.460938 234.289062 231.460938 233.105469 230.671875 232.414062 L 222.28125 224.617188 C 221.492188 223.925781 220.304688 223.925781 219.617188 224.714844 C 218.925781 225.503906 218.925781 226.691406 219.714844 227.382812 L 228.105469 235.179688 C 228.894531 235.96875 230.078125 235.871094 230.769531 235.082031 Z M 230.769531 235.082031 " fill-opacity="1" fill-rule="nonzero"/><path fill="rgb(26.269531%, 43.919373%, 71.369934%)" d="M 253.96875 261.042969 C 254.066406 261.042969 254.066406 261.042969 253.96875 261.042969 C 257.523438 262.324219 261.273438 260.15625 262.160156 256.601562 L 270.058594 225.210938 C 270.949219 221.65625 268.777344 218.101562 265.320312 217.214844 C 261.765625 216.324219 258.214844 218.496094 257.324219 221.953125 L 254.265625 234.289062 L 251.203125 246.53125 C 249.824219 252.355469 247.058594 258.476562 253.96875 261.042969 Z M 253.96875 261.042969 " fill-opacity="1" fill-rule="nonzero"/><path fill="rgb(15.289307%, 22.749329%, 57.249451%)" d="M 267.296875 182.269531 C 267.394531 181.675781 267.394531 181.082031 267.492188 180.492188 C 267.789062 175.359375 266.898438 170.027344 271.34375 166.175781 C 274.402344 163.511719 278.941406 163.414062 282.992188 163.609375 C 287.433594 163.90625 291.972656 164.5 295.824219 166.867188 C 302.929688 171.3125 302.832031 182.464844 300.757812 189.671875 C 299.871094 192.730469 299.179688 195.691406 298.882812 198.554688 C 298.984375 203.195312 301.550781 205.464844 306.878906 206.355469 C 310.730469 206.945312 313.988281 209.316406 315.765625 213.265625 C 316.554688 215.042969 317.046875 217.113281 317.144531 219.1875 C 317.441406 225.503906 318.035156 227.28125 325.4375 229.550781 C 329.878906 230.933594 333.53125 233.996094 335.703125 238.734375 C 340.835938 250.085938 335.507812 266.375 323.761719 275.257812 C 312.011719 284.140625 298.292969 282.167969 293.160156 270.816406 C 290.988281 266.078125 290.691406 260.351562 291.875 254.824219 C 293.949219 245.445312 293.058594 243.964844 288.914062 240.511719 C 287.53125 239.425781 286.445312 237.945312 285.558594 236.066406 C 283.78125 232.121094 283.78125 227.382812 285.164062 222.839844 C 287.136719 216.523438 286.839844 212.375 283.679688 210.105469 C 281.609375 209.117188 279.238281 208.425781 276.773438 207.933594 C 272.722656 207.144531 269.367188 204.675781 267.394531 200.53125 C 264.433594 194.210938 266.605469 188.386719 267.296875 182.269531 Z M 267.296875 182.269531 " fill-opacity="1" fill-rule="nonzero"/><path fill="rgb(26.269531%, 43.919373%, 71.369934%)" d="M 311.222656 369.039062 C 311.222656 366.765625 309.644531 363.902344 307.570312 362.816406 C 305.597656 361.632812 303.917969 362.621094 303.917969 364.890625 C 303.917969 367.160156 305.496094 370.023438 307.570312 371.109375 C 309.644531 372.292969 311.222656 371.308594 311.222656 369.039062 Z M 311.222656 369.039062 " fill-opacity="1" fill-rule="nonzero"/><path fill="rgb(26.269531%, 43.919373%, 71.369934%)" d="M 311.222656 369.039062 C 311.222656 366.765625 309.644531 363.902344 307.570312 362.816406 C 305.597656 361.632812 303.917969 362.621094 303.917969 364.890625 C 303.917969 367.160156 305.496094 370.023438 307.570312 371.109375 C 309.644531 372.292969 311.222656 371.308594 311.222656 369.039062 Z M 311.222656 369.039062 " fill-opacity="1" fill-rule="nonzero"/><path fill="rgb(26.269531%, 43.919373%, 71.369934%)" d="M 305.003906 362.621094 L 301.945312 364.199219 L 306.78125 373.085938 L 310.433594 371.207031 L 309.546875 366.175781 Z M 305.003906 362.621094 " fill-opacity="1" fill-rule="nonzero"/><path fill="rgb(64.309692%, 80.778503%, 93.328857%)" d="M 308.164062 370.617188 C 308.164062 368.347656 306.582031 365.484375 304.511719 364.398438 C 302.535156 363.214844 300.859375 364.199219 300.859375 366.46875 C 300.859375 368.742188 302.4375 371.605469 304.511719 372.691406 C 306.582031 373.875 308.164062 372.886719 308.164062 370.617188 Z M 308.164062 370.617188 " fill-opacity="1" fill-rule="nonzero"/><path fill="rgb(64.309692%, 80.778503%, 93.328857%)" d="M 308.164062 370.617188 C 308.164062 368.347656 306.582031 365.484375 304.511719 364.398438 C 302.535156 363.214844 300.859375 364.199219 300.859375 366.46875 C 300.859375 368.742188 302.4375 371.605469 304.511719 372.691406 C 306.582031 373.875 308.164062 372.886719 308.164062 370.617188 Z M 308.164062 370.617188 " fill-opacity="1" fill-rule="nonzero"/><path fill="rgb(26.269531%, 43.919373%, 71.369934%)" d="M 267.886719 344.851562 C 267.886719 342.582031 266.308594 339.71875 264.234375 338.632812 C 262.261719 337.449219 260.582031 338.433594 260.582031 340.707031 C 260.582031 342.976562 262.160156 345.839844 264.234375 346.925781 C 266.308594 348.011719 267.886719 347.121094 267.886719 344.851562 Z M 267.886719 344.851562 " fill-opacity="1" fill-rule="nonzero"/><path fill="rgb(26.269531%, 43.919373%, 71.369934%)" d="M 267.886719 344.851562 C 267.886719 342.582031 266.308594 339.71875 264.234375 338.632812 C 262.261719 337.449219 260.582031 338.433594 260.582031 340.707031 C 260.582031 342.976562 262.160156 345.839844 264.234375 346.925781 C 266.308594 348.011719 267.886719 347.121094 267.886719 344.851562 Z M 267.886719 344.851562 " fill-opacity="1" fill-rule="nonzero"/><path fill="rgb(26.269531%, 43.919373%, 71.369934%)" d="M 261.667969 338.433594 L 258.609375 340.015625 L 263.445312 348.898438 L 267.097656 347.023438 L 266.210938 341.988281 Z M 261.667969 338.433594 " fill-opacity="1" fill-rule="nonzero"/><path fill="rgb(64.309692%, 80.778503%, 93.328857%)" d="M 264.828125 346.429688 C 264.828125 344.160156 263.246094 341.296875 261.175781 340.210938 C 259.199219 339.027344 257.523438 340.015625 257.523438 342.285156 C 257.523438 344.554688 259.101562 347.417969 261.175781 348.503906 C 263.246094 349.589844 264.828125 348.703125 264.828125 346.429688 Z M 264.828125 346.429688 " fill-opacity="1" fill-rule="nonzero"/><path fill="rgb(64.309692%, 80.778503%, 93.328857%)" d="M 264.828125 346.429688 C 264.828125 344.160156 263.246094 341.296875 261.175781 340.210938 C 259.199219 339.027344 257.523438 340.015625 257.523438 342.285156 C 257.523438 344.554688 259.101562 347.417969 261.175781 348.503906 C 263.246094 349.589844 264.828125 348.703125 264.828125 346.429688 Z M 264.828125 346.429688 " fill-opacity="1" fill-rule="nonzero"/><path fill="rgb(26.269531%, 43.919373%, 71.369934%)" d="M 269.960938 370.121094 C 269.960938 367.851562 268.378906 364.988281 266.308594 363.902344 C 264.332031 362.71875 262.65625 363.707031 262.65625 365.976562 C 262.65625 368.246094 264.234375 371.109375 266.308594 372.195312 C 268.378906 373.378906 269.960938 372.394531 269.960938 370.121094 Z M 269.960938 370.121094 " fill-opacity="1" fill-rule="nonzero"/><path fill="rgb(26.269531%, 43.919373%, 71.369934%)" d="M 269.960938 370.121094 C 269.960938 367.851562 268.378906 364.988281 266.308594 363.902344 C 264.332031 362.71875 262.65625 363.707031 262.65625 365.976562 C 262.65625 368.246094 264.234375 371.109375 266.308594 372.195312 C 268.378906 373.378906 269.960938 372.394531 269.960938 370.121094 Z M 269.960938 370.121094 " fill-opacity="1" fill-rule="nonzero"/><path fill="rgb(26.269531%, 43.919373%, 71.369934%)" d="M 263.742188 363.707031 L 260.582031 365.285156 L 265.519531 374.171875 L 269.070312 372.292969 L 268.183594 367.261719 Z M 263.742188 363.707031 " fill-opacity="1" fill-rule="nonzero"/><path fill="rgb(64.309692%, 80.778503%, 93.328857%)" d="M 266.898438 371.703125 C 266.898438 369.433594 265.320312 366.570312 263.246094 365.484375 C 261.273438 364.296875 259.59375 365.285156 259.59375 367.554688 C 259.59375 369.828125 261.175781 372.691406 263.246094 373.777344 C 265.320312 374.960938 266.898438 373.972656 266.898438 371.703125 Z M 266.898438 371.703125 " fill-opacity="1" fill-rule="nonzero"/><path fill="rgb(64.309692%, 80.778503%, 93.328857%)" d="M 266.898438 371.703125 C 266.898438 369.433594 265.320312 366.570312 263.246094 365.484375 C 261.273438 364.296875 259.59375 365.285156 259.59375 367.554688 C 259.59375 369.828125 261.175781 372.691406 263.246094 373.777344 C 265.320312 374.960938 266.898438 373.972656 266.898438 371.703125 Z M 266.898438 371.703125 " fill-opacity="1" fill-rule="nonzero"/><path fill="rgb(26.269531%, 43.919373%, 71.369934%)" d="M 312.011719 345.742188 C 312.011719 343.46875 310.433594 340.605469 308.359375 339.519531 C 306.386719 338.335938 304.707031 339.324219 304.707031 341.59375 C 304.707031 343.863281 306.289062 346.726562 308.359375 347.8125 C 310.433594 348.898438 312.011719 348.011719 312.011719 345.742188 Z M 312.011719 345.742188 " fill-opacity="1" fill-rule="nonzero"/><path fill="rgb(26.269531%, 43.919373%, 71.369934%)" d="M 312.011719 345.742188 C 312.011719 343.46875 310.433594 340.605469 308.359375 339.519531 C 306.386719 338.335938 304.707031 339.324219 304.707031 341.59375 C 304.707031 343.863281 306.289062 346.726562 308.359375 347.8125 C 310.433594 348.898438 312.011719 348.011719 312.011719 345.742188 Z M 312.011719 345.742188 " fill-opacity="1" fill-rule="nonzero"/><path fill="rgb(26.269531%, 43.919373%, 71.369934%)" d="M 305.792969 339.324219 L 302.636719 340.902344 L 307.570312 349.789062 L 311.222656 347.910156 L 310.234375 342.878906 Z M 305.792969 339.324219 " fill-opacity="1" fill-rule="nonzero"/><path fill="rgb(64.309692%, 80.778503%, 93.328857%)" d="M 308.953125 347.320312 C 308.953125 345.050781 307.375 342.1875 305.300781 341.101562 C 303.324219 339.917969 301.648438 340.902344 301.648438 343.171875 C 301.648438 345.445312 303.226562 348.308594 305.300781 349.394531 C 307.375 350.578125 308.953125 349.589844 308.953125 347.320312 Z M 308.953125 347.320312 " fill-opacity="1" fill-rule="nonzero"/><path fill="rgb(64.309692%, 80.778503%, 93.328857%)" d="M 308.953125 347.320312 C 308.953125 345.050781 307.375 342.1875 305.300781 341.101562 C 303.324219 339.917969 301.648438 340.902344 301.648438 343.171875 C 301.648438 345.445312 303.226562 348.308594 305.300781 349.394531 C 307.375 350.578125 308.953125 349.589844 308.953125 347.320312 Z M 308.953125 347.320312 " fill-opacity="1" fill-rule="nonzero"/><path fill="rgb(93.328857%, 96.078491%, 98.429871%)" d="M 259.988281 360.152344 L 275.980469 350.972656 L 259.988281 341.792969 C 257.324219 340.3125 257.324219 337.84375 259.988281 336.265625 C 262.65625 334.78125 266.898438 334.78125 269.464844 336.265625 L 285.457031 345.445312 L 301.449219 336.265625 C 304.117188 334.78125 308.359375 334.78125 310.925781 336.265625 C 313.492188 337.746094 313.59375 340.210938 310.925781 341.792969 L 294.933594 350.972656 L 310.925781 360.152344 C 313.59375 361.632812 313.59375 364.101562 310.925781 365.679688 C 308.261719 367.160156 304.015625 367.160156 301.449219 365.679688 L 285.457031 356.5 L 269.464844 365.679688 C 266.800781 367.160156 262.554688 367.160156 259.988281 365.679688 C 257.324219 364.101562 257.324219 361.632812 259.988281 360.152344 Z M 259.988281 360.152344 " fill-opacity="1" fill-rule="nonzero"/><path fill="rgb(93.328857%, 96.078491%, 98.429871%)" d="M 259.988281 360.152344 L 275.980469 350.972656 L 259.988281 341.792969 C 257.324219 340.3125 257.324219 337.84375 259.988281 336.265625 C 262.65625 334.78125 266.898438 334.78125 269.464844 336.265625 L 285.457031 345.445312 L 301.449219 336.265625 C 304.117188 334.78125 308.359375 334.78125 310.925781 336.265625 C 313.492188 337.746094 313.59375 340.210938 310.925781 341.792969 L 294.933594 350.972656 L 310.925781 360.152344 C 313.59375 361.632812 313.59375 364.101562 310.925781 365.679688 C 308.261719 367.160156 304.015625 367.160156 301.449219 365.679688 L 285.457031 356.5 L 269.464844 365.679688 C 266.800781 367.160156 262.554688 367.160156 259.988281 365.679688 C 257.324219 364.101562 257.324219 361.632812 259.988281 360.152344 Z M 259.988281 360.152344 " fill-opacity="1" fill-rule="nonzero"/><path fill="rgb(77.249146%, 86.669922%, 94.898987%)" d="M 293.453125 350.675781 C 293.453125 353.636719 289.902344 356.105469 285.457031 356.105469 C 281.015625 356.105469 277.460938 353.734375 277.460938 350.675781 C 277.460938 347.714844 281.015625 342.777344 285.457031 342.777344 C 289.902344 342.777344 293.453125 347.714844 293.453125 350.675781 Z M 293.453125 350.675781 " fill-opacity="1" fill-rule="nonzero"/><path fill="rgb(93.328857%, 96.078491%, 98.429871%)" d="M 291.382812 346.726562 C 291.382812 346.988281 291.34375 347.242188 291.269531 347.496094 C 291.191406 347.753906 291.078125 348 290.929688 348.238281 C 290.78125 348.476562 290.597656 348.707031 290.382812 348.921875 C 290.167969 349.136719 289.921875 349.335938 289.648438 349.519531 C 289.371094 349.703125 289.074219 349.867188 288.75 350.011719 C 288.425781 350.15625 288.085938 350.277344 287.726562 350.375 C 287.367188 350.476562 286.996094 350.550781 286.613281 350.601562 C 286.234375 350.652344 285.847656 350.675781 285.457031 350.675781 C 285.070312 350.675781 284.683594 350.652344 284.304688 350.601562 C 283.921875 350.550781 283.550781 350.476562 283.191406 350.375 C 282.832031 350.277344 282.492188 350.15625 282.167969 350.011719 C 281.84375 349.867188 281.546875 349.703125 281.269531 349.519531 C 280.996094 349.335938 280.75 349.136719 280.535156 348.921875 C 280.316406 348.707031 280.136719 348.476562 279.988281 348.238281 C 279.835938 348 279.726562 347.753906 279.648438 347.496094 C 279.574219 347.242188 279.535156 346.988281 279.535156 346.726562 C 279.535156 346.46875 279.574219 346.210938 279.648438 345.957031 C 279.726562 345.703125 279.835938 345.457031 279.988281 345.214844 C 280.136719 344.976562 280.316406 344.75 280.535156 344.535156 C 280.75 344.316406 280.996094 344.117188 281.269531 343.933594 C 281.546875 343.753906 281.84375 343.589844 282.167969 343.445312 C 282.492188 343.300781 282.832031 343.179688 283.191406 343.078125 C 283.550781 342.980469 283.921875 342.90625 284.304688 342.855469 C 284.683594 342.804688 285.070312 342.777344 285.457031 342.777344 C 285.847656 342.777344 286.234375 342.804688 286.613281 342.855469 C 286.996094 342.90625 287.367188 342.980469 287.726562 343.078125 C 288.085938 343.179688 288.425781 343.300781 288.75 343.445312 C 289.074219 343.589844 289.371094 343.753906 289.648438 343.933594 C 289.921875 344.117188 290.167969 344.316406 290.382812 344.535156 C 290.597656 344.75 290.78125 344.976562 290.929688 345.214844 C 291.078125 345.457031 291.191406 345.703125 291.269531 345.957031 C 291.34375 346.210938 291.382812 346.46875 291.382812 346.726562 Z M 291.382812 346.726562 " fill-opacity="1" fill-rule="nonzero"/><path fill="rgb(77.249146%, 86.669922%, 94.898987%)" d="M 285.457031 304.28125 C 287.433594 304.28125 289.109375 305.957031 289.109375 307.933594 L 289.109375 343.074219 C 289.109375 345.050781 287.53125 346.726562 285.457031 346.726562 C 283.484375 346.726562 281.804688 345.050781 281.804688 343.074219 L 281.804688 307.933594 C 281.804688 305.859375 283.386719 304.28125 285.457031 304.28125 Z M 285.457031 304.28125 " fill-opacity="1" fill-rule="nonzero"/><path fill="rgb(64.309692%, 80.778503%, 93.328857%)" d="M 343.40625 238.4375 L 337.777344 298.652344 C 337.480469 301.910156 335.605469 304.871094 332.742188 306.550781 L 283.679688 335.472656 C 280.523438 337.347656 276.671875 337.347656 273.515625 335.671875 L 235.804688 314.941406 C 230.671875 312.175781 227.414062 306.945312 226.921875 301.121094 C 226.425781 295.296875 232.746094 291.347656 237.878906 294.210938 L 262.261719 308.128906 C 265.714844 310.105469 270.058594 308.425781 271.242188 304.675781 L 286.25 259.265625 C 286.742188 257.882812 287.730469 256.796875 289.011719 256.105469 L 335.804688 233.007812 C 339.457031 231.230469 343.800781 234.191406 343.40625 238.4375 Z M 343.40625 238.4375 " fill-opacity="1" fill-rule="nonzero"/></svg>