<?xml version="1.0" encoding="UTF-8"?><svg xmlns="http://www.w3.org/2000/svg" xmlns:xlink="http://www.w3.org/1999/xlink" contentScriptType="text/ecmascript" width="375" zoomAndPan="magnify" contentStyleType="text/css" viewBox="0 0 375 374.999991" height="374.999991" preserveAspectRatio="xMidYMid meet" version="1.0"><defs><clipPath id="clip-0"><path d="M 67 152 L 308 152 L 308 316.09375 L 67 316.09375 Z M 67 152 " clip-rule="nonzero"/></clipPath><clipPath id="clip-1"><path d="M 42.125 101.59375 L 333.125 101.59375 L 333.125 165 L 42.125 165 Z M 42.125 101.59375 " clip-rule="nonzero"/></clipPath></defs><path fill="rgb(32.159424%, 44.309998%, 100%)" d="M 187.5 0 C 83.945312 0 0 83.945312 0 187.5 C 0 291.054688 83.945312 375 187.5 375 C 291.054688 375 375 291.054688 375 187.5 C 375 83.945312 291.054688 0 187.5 0 Z M 187.5 0 " fill-opacity="1" fill-rule="nonzero"/><g clip-path="url(#clip-0)"><path fill="rgb(100%, 100%, 100%)" d="M 187.625 316.09375 C 121.390625 316.09375 67.496094 262.316406 67.496094 196.222656 L 67.496094 158.371094 C 67.496094 154.890625 70.328125 152.0625 73.816406 152.0625 L 301.433594 152.0625 C 304.925781 152.0625 307.757812 154.890625 307.757812 158.371094 L 307.757812 196.222656 C 307.757812 262.316406 253.863281 316.09375 187.625 316.09375 Z M 80.140625 164.679688 L 80.140625 196.222656 C 80.140625 255.363281 128.359375 303.472656 187.625 303.472656 C 246.894531 303.472656 295.113281 255.363281 295.113281 196.222656 L 295.113281 164.679688 Z M 80.140625 164.679688 " fill-opacity="1" fill-rule="nonzero"/></g><path fill="rgb(100%, 100%, 100%)" d="M 187.625 290.855469 C 156.253906 290.855469 130.722656 265.382812 130.722656 234.078125 C 130.722656 202.773438 156.253906 177.296875 187.625 177.296875 C 219 177.296875 244.53125 202.773438 244.53125 234.078125 C 244.53125 265.382812 219 290.855469 187.625 290.855469 Z M 187.625 189.914062 C 163.222656 189.914062 143.367188 209.726562 143.367188 234.078125 C 143.367188 258.429688 163.222656 278.238281 187.625 278.238281 C 212.03125 278.238281 231.886719 258.429688 231.886719 234.078125 C 231.886719 209.726562 212.03125 189.914062 187.625 189.914062 Z M 187.625 189.914062 " fill-opacity="1" fill-rule="nonzero"/><path fill="rgb(100%, 100%, 100%)" d="M 187.625 265.621094 C 170.1875 265.621094 156.011719 251.464844 156.011719 234.078125 C 156.011719 216.691406 170.1875 202.53125 187.625 202.53125 C 205.066406 202.53125 219.238281 216.691406 219.238281 234.078125 C 219.238281 251.464844 205.066406 265.621094 187.625 265.621094 Z M 187.625 215.152344 C 177.167969 215.152344 168.660156 223.640625 168.660156 234.078125 C 168.660156 244.511719 177.167969 253.003906 187.625 253.003906 C 198.085938 253.003906 206.59375 244.511719 206.59375 234.078125 C 206.59375 223.640625 198.085938 215.152344 187.625 215.152344 Z M 187.625 215.152344 " fill-opacity="1" fill-rule="nonzero"/><g clip-path="url(#clip-1)"><path fill="rgb(100%, 100%, 100%)" d="M 314.082031 164.679688 L 61.171875 164.679688 C 50.714844 164.679688 42.203125 156.1875 42.203125 145.753906 L 42.203125 107.902344 C 42.203125 104.417969 45.039062 101.59375 48.527344 101.59375 L 326.726562 101.59375 C 330.214844 101.59375 333.046875 104.417969 333.046875 107.902344 L 333.046875 145.753906 C 333.046875 156.1875 324.539062 164.679688 314.082031 164.679688 Z M 54.851562 114.210938 L 54.851562 145.753906 C 54.851562 149.234375 57.695312 152.0625 61.171875 152.0625 L 314.082031 152.0625 C 317.558594 152.0625 320.402344 149.234375 320.402344 145.753906 L 320.402344 114.210938 Z M 54.851562 114.210938 " fill-opacity="1" fill-rule="nonzero"/></g><path fill="rgb(100%, 100%, 100%)" d="M 269.820312 196.222656 C 269.820312 196.636719 269.78125 197.046875 269.699219 197.457031 C 269.621094 197.863281 269.5 198.257812 269.339844 198.636719 C 269.179688 199.019531 268.988281 199.386719 268.757812 199.730469 C 268.527344 200.074219 268.261719 200.390625 267.96875 200.683594 C 267.675781 200.976562 267.355469 201.238281 267.011719 201.46875 C 266.667969 201.699219 266.300781 201.894531 265.917969 202.054688 C 265.535156 202.210938 265.140625 202.332031 264.734375 202.410156 C 264.324219 202.492188 263.914062 202.53125 263.5 202.53125 C 263.082031 202.53125 262.671875 202.492188 262.265625 202.410156 C 261.859375 202.332031 261.464844 202.210938 261.078125 202.054688 C 260.695312 201.894531 260.332031 201.699219 259.988281 201.46875 C 259.640625 201.238281 259.320312 200.976562 259.027344 200.683594 C 258.734375 200.390625 258.472656 200.074219 258.242188 199.730469 C 258.011719 199.386719 257.816406 199.019531 257.65625 198.636719 C 257.5 198.257812 257.378906 197.863281 257.296875 197.457031 C 257.21875 197.046875 257.175781 196.636719 257.175781 196.222656 C 257.175781 195.808594 257.21875 195.398438 257.296875 194.992188 C 257.378906 194.585938 257.5 194.191406 257.65625 193.808594 C 257.816406 193.425781 258.011719 193.0625 258.242188 192.71875 C 258.472656 192.375 258.734375 192.054688 259.027344 191.761719 C 259.320312 191.46875 259.640625 191.207031 259.988281 190.980469 C 260.332031 190.75 260.695312 190.554688 261.078125 190.394531 C 261.464844 190.238281 261.859375 190.117188 262.265625 190.035156 C 262.671875 189.957031 263.082031 189.914062 263.5 189.914062 C 263.914062 189.914062 264.324219 189.957031 264.734375 190.035156 C 265.140625 190.117188 265.535156 190.238281 265.917969 190.394531 C 266.300781 190.554688 266.667969 190.75 267.011719 190.980469 C 267.355469 191.207031 267.675781 191.46875 267.96875 191.761719 C 268.261719 192.054688 268.527344 192.375 268.757812 192.71875 C 268.988281 193.0625 269.179688 193.425781 269.339844 193.808594 C 269.5 194.191406 269.621094 194.585938 269.699219 194.992188 C 269.78125 195.398438 269.820312 195.808594 269.820312 196.222656 Z M 269.820312 196.222656 " fill-opacity="1" fill-rule="nonzero"/></svg>