<?xml version="1.0" encoding="UTF-8"?><svg xmlns="http://www.w3.org/2000/svg" xmlns:xlink="http://www.w3.org/1999/xlink" contentScriptType="text/ecmascript" width="375" zoomAndPan="magnify" contentStyleType="text/css" viewBox="0 0 375 374.999991" height="374.999991" preserveAspectRatio="xMidYMid meet" version="1.0"><defs><clipPath id="clip-0"><path d="M 34.664062 73 L 323.414062 73 L 323.414062 281 L 34.664062 281 Z M 34.664062 73 " clip-rule="nonzero"/></clipPath></defs><path fill="rgb(32.159424%, 44.309998%, 100%)" d="M 187.5 0 C 83.945312 0 0 83.945312 0 187.5 C 0 291.054688 83.945312 375 187.5 375 C 291.054688 375 375 291.054688 375 187.5 C 375 83.945312 291.054688 0 187.5 0 Z M 187.5 0 " fill-opacity="1" fill-rule="nonzero"/><g clip-path="url(#clip-0)"><path fill="rgb(100%, 100%, 100%)" d="M 74.324219 124.285156 L 265.613281 73.152344 L 285.59375 147.550781 L 129.96875 189.148438 Z M 301.136719 174.625 L 323.375 174.625 L 323.375 280.953125 L 301.136719 280.953125 C 288.902344 280.953125 278.898438 270.964844 278.898438 258.765625 L 278.898438 239.65625 L 247.015625 239.65625 C 242.753906 239.65625 239.019531 237.417969 236.921875 234.0625 L 203.136719 188.441406 L 82.664062 220.644531 C 79.289062 221.546875 75.800781 219.539062 74.894531 216.175781 L 73.714844 211.769531 L 48.996094 218.382812 L 34.664062 165.007812 L 59.378906 158.402344 L 58.195312 154.003906 C 57.292969 150.636719 59.308594 147.152344 62.683594 146.253906 L 78.988281 141.890625 L 127.191406 198.078125 L 267.582031 160.550781 L 270.253906 170.503906 L 227.746094 181.863281 L 252.96875 215.921875 L 278.898438 215.921875 L 278.898438 196.8125 C 278.898438 184.609375 288.902344 174.625 301.136719 174.625 Z M 301.136719 174.625 " fill-opacity="1" fill-rule="evenodd"/></g></svg>