<?xml version="1.0" encoding="UTF-8"?><svg xmlns="http://www.w3.org/2000/svg" xmlns:xlink="http://www.w3.org/1999/xlink" contentScriptType="text/ecmascript" width="375" zoomAndPan="magnify" contentStyleType="text/css" viewBox="0 0 375 374.999991" height="374.999991" preserveAspectRatio="xMidYMid meet" version="1.0"><defs><clipPath id="clip-0"><path d="M 49 71.53125 L 326 71.53125 L 326 216 L 49 216 Z M 49 71.53125 " clip-rule="nonzero"/></clipPath><clipPath id="clip-1"><path d="M 49 226 L 326 226 L 326 303.28125 L 49 303.28125 Z M 49 226 " clip-rule="nonzero"/></clipPath></defs><path fill="rgb(32.159424%, 44.309998%, 100%)" d="M 187.5 0 C 83.945312 0 0 83.945312 0 187.5 C 0 291.054688 83.945312 375 187.5 375 C 291.054688 375 375 291.054688 375 187.5 C 375 83.945312 291.054688 0 187.5 0 Z M 187.5 0 " fill-opacity="1" fill-rule="nonzero"/><g clip-path="url(#clip-0)"><path fill="rgb(100%, 100%, 100%)" d="M 52.582031 148.34375 L 184.867188 214.496094 C 185.640625 214.882812 186.488281 215.074219 187.332031 215.074219 C 188.175781 215.074219 189.023438 214.882812 189.796875 214.496094 L 322.085938 148.34375 C 323.953125 147.40625 325.132812 145.496094 325.132812 143.40625 C 325.132812 141.316406 323.953125 139.410156 322.085938 138.472656 L 189.796875 72.320312 C 188.246094 71.542969 186.417969 71.542969 184.863281 72.320312 L 52.574219 138.472656 C 50.710938 139.410156 49.53125 141.316406 49.53125 143.40625 C 49.53125 145.496094 50.710938 147.40625 52.582031 148.34375 Z M 52.582031 148.34375 " fill-opacity="1" fill-rule="nonzero"/></g><path fill="rgb(100%, 100%, 100%)" d="M 317.15625 182.578125 L 187.332031 247.503906 L 57.507812 182.578125 C 54.78125 181.210938 51.472656 182.324219 50.113281 185.042969 C 48.75 187.765625 49.851562 191.078125 52.574219 192.441406 L 184.863281 258.59375 C 185.640625 258.988281 186.488281 259.179688 187.332031 259.179688 C 188.175781 259.179688 189.023438 258.988281 189.796875 258.601562 L 322.085938 192.445312 C 324.808594 191.082031 325.910156 187.769531 324.546875 185.046875 C 323.179688 182.324219 319.878906 181.222656 317.15625 182.578125 Z M 317.15625 182.578125 " fill-opacity="1" fill-rule="nonzero"/><g clip-path="url(#clip-1)"><path fill="rgb(100%, 100%, 100%)" d="M 317.15625 226.679688 L 187.332031 291.605469 L 57.507812 226.679688 C 54.78125 225.324219 51.472656 226.425781 50.113281 229.144531 C 48.75 231.867188 49.851562 235.179688 52.574219 236.542969 L 184.863281 302.699219 C 185.640625 303.089844 186.488281 303.28125 187.332031 303.28125 C 188.175781 303.28125 189.023438 303.089844 189.796875 302.703125 L 322.085938 236.546875 C 324.808594 235.1875 325.910156 231.875 324.546875 229.152344 C 323.179688 226.425781 319.878906 225.324219 317.15625 226.679688 Z M 317.15625 226.679688 " fill-opacity="1" fill-rule="nonzero"/></g></svg>