<?xml version="1.0" encoding="UTF-8"?><svg xmlns="http://www.w3.org/2000/svg" xmlns:xlink="http://www.w3.org/1999/xlink" contentScriptType="text/ecmascript" width="375" zoomAndPan="magnify" contentStyleType="text/css" viewBox="0 0 375 374.999991" height="374.999991" preserveAspectRatio="xMidYMid meet" version="1.0"><defs><clipPath id="clip-0"><path d="M 61.027344 64.246094 L 313.777344 64.246094 L 313.777344 310.996094 L 61.027344 310.996094 Z M 61.027344 64.246094 " clip-rule="nonzero"/></clipPath></defs><path fill="rgb(32.159424%, 44.309998%, 100%)" d="M 187.5 0 C 83.945312 0 0 83.945312 0 187.5 C 0 291.054688 83.945312 375 187.5 375 C 291.054688 375 375 291.054688 375 187.5 C 375 83.945312 291.054688 0 187.5 0 Z M 187.5 0 " fill-opacity="1" fill-rule="nonzero"/><g clip-path="url(#clip-0)"><path fill="rgb(100%, 100%, 100%)" d="M 92.664062 64.246094 L 89.503906 70.574219 L 122.664062 89.554688 C 122.664062 105.371094 116.347656 118.023438 102.136719 125.933594 L 68.976562 106.953125 L 67.398438 110.117188 C 75.292969 133.839844 91.082031 149.660156 122.664062 149.660156 C 130.558594 149.660156 154.242188 173.386719 166.875 186.039062 L 192.136719 160.730469 C 179.507812 148.078125 151.085938 119.605469 151.085938 111.699219 C 151.085938 83.226562 143.191406 64.246094 92.664062 64.246094 Z M 290.035156 72.152344 L 258.457031 94.296875 L 255.296875 106.953125 L 163.714844 198.691406 L 151.085938 190.785156 L 144.769531 197.109375 C 144.769531 216.089844 122.664062 225.582031 113.1875 225.582031 L 61.082031 277.777344 C 61.082031 293.597656 78.453125 310.996094 94.242188 310.996094 L 146.347656 258.796875 C 146.347656 249.308594 155.820312 227.164062 174.769531 227.164062 L 181.085938 220.835938 L 173.191406 208.183594 L 264.769531 116.441406 L 277.402344 113.277344 L 299.507812 81.644531 Z M 211.085938 179.710938 L 185.820312 205.019531 C 204.769531 224 230.035156 249.308594 230.035156 257.214844 C 230.035156 285.6875 237.929688 304.667969 288.457031 304.667969 L 291.613281 298.339844 L 258.457031 279.359375 C 258.457031 263.542969 264.769531 250.890625 278.980469 242.980469 L 312.140625 261.960938 L 313.71875 258.796875 C 305.824219 235.074219 290.035156 219.253906 258.457031 219.253906 C 250.558594 219.253906 230.035156 198.691406 211.085938 179.710938 Z M 211.085938 179.710938 " fill-opacity="1" fill-rule="nonzero"/></g></svg>